<?xml version="1.0" encoding="UTF-8" standalone="no"?>
<!-- Created with Inkscape (http://www.inkscape.org/) -->

<svg
   width="3.4000001in"
   height="1.4000001in"
   viewBox="0 0 43.179999 17.780001"
   version="1.1"
   id="svg5"
   sodipodi:docname="front-2x.svg"
   inkscape:version="1.1.2 (b8e25be833, 2022-02-05)"
   xmlns:inkscape="http://www.inkscape.org/namespaces/inkscape"
   xmlns:sodipodi="http://sodipodi.sourceforge.net/DTD/sodipodi-0.dtd"
   xmlns="http://www.w3.org/2000/svg"
   xmlns:svg="http://www.w3.org/2000/svg">
  <sodipodi:namedview
     id="namedview7"
     pagecolor="#ffffff"
     bordercolor="#999999"
     borderopacity="1"
     inkscape:pageshadow="0"
     inkscape:pageopacity="0"
     inkscape:pagecheckerboard="false"
     inkscape:document-units="in"
     showgrid="true"
     showguides="true"
     inkscape:guide-bbox="true"
     inkscape:snap-midpoints="false"
     inkscape:snap-object-midpoints="true"
     inkscape:zoom="4"
     inkscape:cx="151.75"
     inkscape:cy="88.75"
     inkscape:window-width="2558"
     inkscape:window-height="1253"
     inkscape:window-x="-8"
     inkscape:window-y="-8"
     inkscape:window-maximized="1"
     inkscape:current-layer="layer3"
     inkscape:snap-smooth-nodes="true"
     inkscape:snap-intersection-paths="true"
     inkscape:snap-grids="true"
     inkscape:snap-bbox="true"
     inkscape:snap-bbox-midpoints="true"
     inkscape:snap-global="true"
     inkscape:snap-nodes="true"
     inkscape:snap-others="false"
     inkscape:object-paths="true"
     inkscape:lockguides="false"
     scale-x="25.4"
     viewbox-width="43.18"
     viewbox-x="0"
     units="in">
    <inkscape:grid
       type="xygrid"
       id="grid1114"
       units="mm"
       spacingx="0.254"
       spacingy="0.254"
       empspacing="5"
       originx="-4.5617677e-07"
       originy="0" />
  </sodipodi:namedview>
  <defs
     id="defs2">
    <rect
       x="-6.75"
       y="54.5"
       width="177.25"
       height="9.5"
       id="rect95036" />
  </defs>
  <g
     inkscape:groupmode="layer"
     id="layer3"
     inkscape:label="SILKSCREEN"
     style="display:inline;mix-blend-mode:normal">
    <path
       id="text111349"
       style="font-weight:bold;font-size:1.05833px;line-height:1.25;font-family:'Fira Code';-inkscape-font-specification:'Fira Code Bold';font-variant-ligatures:none;letter-spacing:0.0396875px;writing-mode:lr-tb;fill:#000000;stroke-width:0.264583"
       d="m 22.229527,7.2226619 v 0.1782837 h 0.287838 v 0.050643 l -0.287838,0.1627806 v 0.2010215 l 0.31781,-0.1968874 c 0.01122,0.028222 0.02599,0.053686 0.04444,0.076481 0.01845,0.022794 0.04092,0.040873 0.0677,0.05426 0.02678,0.013388 0.05823,0.020153 0.09405,0.020153 0.07779,0 0.135332,-0.025929 0.172599,-0.078031 0.03727,-0.052102 0.05581,-0.1296315 0.05581,-0.2320271 v -0.236678 z m 0.409794,0.1782837 h 0.217558 v 0.058911 c 0,0.041609 -0.0082,0.073065 -0.02481,0.094051 -0.01628,0.021347 -0.04237,0.032039 -0.07855,0.032039 -0.0398,0 -0.06873,-0.010226 -0.08682,-0.030489 -0.01809,-0.020262 -0.02739,-0.049652 -0.02739,-0.088367 z m -0.409794,0.5508706 v 0.4924763 h 0.127641 V 8.1300998 h 0.192236 v 0.2604493 h 0.12454 V 8.1300998 h 0.180868 v 0.2955895 l 0.127124,0.018087 v -0.49196 z m 0.09043,0.603064 c -0.03075,0.031479 -0.05705,0.071095 -0.07803,0.1188558 -0.02062,0.048122 -0.03101,0.1078834 -0.03101,0.1788004 0,0.064042 0.01023,0.1187413 0.03049,0.1643311 0.02026,0.04559 0.04841,0.080144 0.08423,0.1043864 0.03582,0.024604 0.07735,0.037207 0.124024,0.037207 0.04631,0 0.08433,-0.0093 0.114721,-0.027389 0.03039,-0.01773 0.05555,-0.043503 0.07545,-0.077515 0.02026,-0.033649 0.03772,-0.074041 0.05219,-0.1214394 0.01266,-0.039801 0.02366,-0.071101 0.03307,-0.093535 0.0098,-0.022434 0.02015,-0.03798 0.03101,-0.047025 0.01086,-0.00905 0.02439,-0.013436 0.04031,-0.013436 0.01628,0 0.02945,0.00455 0.04031,0.013951 0.01086,0.00941 0.01938,0.022786 0.02481,0.039791 0.0058,0.017005 0.0083,0.036478 0.0083,0.058911 0,0.030393 -0.005,0.060093 -0.0155,0.0894 -0.01013,0.029308 -0.02568,0.056838 -0.04703,0.082166 l 0.09663,0.084233 c 0.03112,-0.032564 0.05467,-0.071251 0.07131,-0.1157553 0.01701,-0.044504 0.02584,-0.095742 0.02584,-0.1539956 0,-0.051741 -0.009,-0.099053 -0.02636,-0.1421104 -0.017,-0.043057 -0.04185,-0.077663 -0.07441,-0.1033528 -0.03256,-0.025329 -0.07187,-0.037724 -0.117823,-0.037724 -0.03799,0 -0.07115,0.00785 -0.09973,0.02377 -0.02858,0.016282 -0.05374,0.042056 -0.07545,0.077515 -0.02171,0.03582 -0.04134,0.082978 -0.05943,0.1415933 -0.01049,0.035097 -0.02088,0.062627 -0.03101,0.082166 -0.01013,0.019899 -0.02144,0.034053 -0.03411,0.042375 -0.01266,0.00832 -0.02857,0.012401 -0.04703,0.012401 -0.01954,0 -0.03586,-0.00553 -0.04961,-0.01602 -0.01375,-0.010493 -0.02429,-0.025109 -0.03152,-0.043925 -0.0072,-0.018814 -0.01085,-0.040664 -0.01085,-0.065629 0,-0.040162 0.0066,-0.076938 0.01964,-0.1105876 0.01339,-0.03365 0.03208,-0.064641 0.05633,-0.092501 z m -0.09043,0.7787637 v 0.4924764 h 0.127641 V 9.5119276 h 0.192236 v 0.2604492 h 0.12454 V 9.5119276 h 0.180868 v 0.2955893 l 0.127124,0.018087 V 9.3336442 Z M 22.84551,9.9480767 V 10.159434 H 22.229527 V 10.3372 h 0.615983 v 0.201539 l 0.136426,0.0186 V 9.9480757 Z"
       inkscape:label="RESET" />
    <g
       id="g99435"
       inkscape:label="J2"
       style="fill:#000000">
      <path
         id="text54912"
         style="font-weight:bold;font-size:1.05833px;line-height:1.25;font-family:'Fira Code';-inkscape-font-specification:'Fira Code Bold';font-variant-ligatures:none;letter-spacing:0.0396875px;fill:#000000;stroke-width:0.999999"
         inkscape:label="D13"
         d="m 16.933594,55.148438 c -0.195555,0 -0.373789,0.03202 -0.535156,0.09766 -0.161368,0.06427 -0.307586,0.159344 -0.4375,0.285156 l 0.332031,0.34375 c 0.08068,-0.07658 0.168142,-0.135927 0.259765,-0.179688 0.09299,-0.04376 0.19509,-0.06641 0.308594,-0.06641 0.121709,0 0.222247,0.03221 0.298828,0.09375 0.07658,0.06154 0.113282,0.145287 0.113282,0.251953 0,0.08205 -0.01776,0.150963 -0.05469,0.207032 -0.03692,0.0547 -0.08807,0.0957 -0.152344,0.123047 -0.06427,0.02735 -0.137284,0.04102 -0.220703,0.04102 h -0.185547 l -0.07227,0.447266 h 0.257812 c 0.102564,0 0.188655,0.01425 0.259766,0.04297 0.07248,0.02872 0.127139,0.07381 0.164062,0.136718 0.03829,0.06154 0.05859,0.142945 0.05859,0.244141 0,0.135384 -0.04588,0.240021 -0.134766,0.3125 -0.08889,0.07111 -0.202895,0.107422 -0.34375,0.107422 -0.112136,0 -0.219116,-0.02206 -0.320312,-0.06445 -0.09983,-0.04376 -0.191387,-0.112673 -0.273438,-0.207032 l -0.365234,0.339844 c 0.118974,0.135384 0.263436,0.241193 0.431641,0.316406 0.168204,0.07385 0.358347,0.111328 0.570312,0.111328 0.228375,10e-7 0.423789,-0.03924 0.587891,-0.117187 0.164102,-0.07932 0.291385,-0.185125 0.378906,-0.316406 0.08889,-0.131282 0.132813,-0.277501 0.132813,-0.4375 0,-0.153162 -0.0285,-0.277907 -0.08594,-0.375 -0.05744,-0.09709 -0.137085,-0.170691 -0.238281,-0.222657 -0.09983,-0.05333 -0.216375,-0.08964 -0.347657,-0.107421 0.117607,-0.03419 0.220488,-0.08046 0.306641,-0.140625 0.08752,-0.06017 0.155262,-0.135721 0.203125,-0.22461 0.04786,-0.09026 0.07227,-0.196064 0.07227,-0.316406 0,-0.132649 -0.03865,-0.251927 -0.115235,-0.361328 -0.07521,-0.110769 -0.185121,-0.199984 -0.330078,-0.265625 -0.143589,-0.06701 -0.31831,-0.09961 -0.523437,-0.09961 z m -6.125,0.07031 v 2.84375 h 0.765625 c 0.142222,0 0.281999,-0.01308 0.416015,-0.03906 0.134017,-0.02598 0.258761,-0.06991 0.375,-0.132813 0.116239,-0.06291 0.217167,-0.150364 0.304688,-0.259766 0.08889,-0.109401 0.157801,-0.246054 0.207031,-0.410156 0.04923,-0.165469 0.07422,-0.362639 0.07422,-0.59375 0,-0.294016 -0.03983,-0.533549 -0.119141,-0.716797 -0.07932,-0.184615 -0.186881,-0.325952 -0.322265,-0.425781 -0.134017,-0.101196 -0.286092,-0.170108 -0.457032,-0.207031 -0.169572,-0.03829 -0.345464,-0.05859 -0.527343,-0.05859 z m 3.552734,0 -0.917969,0.558594 0.275391,0.445312 0.583984,-0.365234 v 1.714844 H 13.619141 V 58.0625 h 1.847656 v -0.490234 h -0.53125 V 55.21875 Z m -2.880859,0.488281 H 11.625 c 0.08889,0 0.171466,0.01249 0.248047,0.03711 0.07658,0.02462 0.14315,0.07108 0.199219,0.136718 0.05743,0.06564 0.101359,0.157003 0.132812,0.277344 0.03282,0.120342 0.04883,0.277298 0.04883,0.46875 0,0.18735 -0.01484,0.341767 -0.04492,0.464844 -0.03008,0.123076 -0.07284,0.219905 -0.128906,0.291015 -0.05607,0.06974 -0.123223,0.120306 -0.201172,0.150391 -0.07658,0.02872 -0.160915,0.04297 -0.253906,0.04297 h -0.144531 z"
         transform="scale(0.26458333)" />
      <path
         id="text57398"
         style="font-weight:bold;font-size:1.05833px;line-height:1.25;font-family:'Fira Code';-inkscape-font-specification:'Fira Code Bold';font-variant-ligatures:none;fill:#000000;stroke-width:0.999999"
         inkscape:label="3.3V"
         d="m 20.677734,55.148438 c -0.195555,0 -0.373789,0.03202 -0.535156,0.09766 -0.161367,0.06427 -0.307586,0.159344 -0.4375,0.285156 l 0.332031,0.34375 c 0.08068,-0.07658 0.168142,-0.135927 0.259766,-0.179688 0.09299,-0.04376 0.19509,-0.06641 0.308594,-0.06641 0.121709,0 0.222247,0.03221 0.298828,0.09375 0.07658,0.06154 0.113281,0.145287 0.113281,0.251953 0,0.08205 -0.01776,0.150963 -0.05469,0.207032 -0.03692,0.0547 -0.08807,0.0957 -0.152344,0.123047 -0.06427,0.02735 -0.137285,0.04102 -0.220703,0.04102 h -0.185547 l -0.07227,0.447266 h 0.257813 c 0.102564,0 0.188654,0.01425 0.259765,0.04297 0.07248,0.02872 0.12714,0.07381 0.164063,0.136718 0.03829,0.06154 0.05859,0.142945 0.05859,0.244141 0,0.135384 -0.04588,0.240021 -0.134766,0.3125 -0.08889,0.07111 -0.202896,0.107422 -0.34375,0.107422 -0.112136,0 -0.219116,-0.02206 -0.320312,-0.06445 C 20.173609,57.528505 20.082051,57.459593 20,57.365234 l -0.363281,0.339844 c 0.118974,0.135384 0.261483,0.241193 0.429687,0.316406 0.168205,0.07385 0.358348,0.111328 0.570313,0.111328 0.228375,10e-7 0.423788,-0.03924 0.58789,-0.117187 0.164102,-0.07932 0.291386,-0.185125 0.378907,-0.316406 0.08889,-0.131282 0.132812,-0.277501 0.132812,-0.4375 0,-0.153162 -0.0285,-0.277907 -0.08594,-0.375 -0.05744,-0.09709 -0.137085,-0.170691 -0.238282,-0.222657 -0.09983,-0.05333 -0.214421,-0.08964 -0.345703,-0.107421 0.117607,-0.03419 0.218534,-0.08046 0.304688,-0.140625 0.08752,-0.06017 0.155262,-0.135721 0.203125,-0.22461 0.04786,-0.09026 0.07227,-0.196064 0.07227,-0.316406 0,-0.132649 -0.03865,-0.251927 -0.115234,-0.361328 -0.07521,-0.110769 -0.185121,-0.199984 -0.330078,-0.265625 -0.143589,-0.06701 -0.31831,-0.09961 -0.523438,-0.09961 z m 3.722657,0 c -0.195555,0 -0.37379,0.03202 -0.535157,0.09766 -0.161367,0.06427 -0.307585,0.159344 -0.4375,0.285156 l 0.333985,0.34375 c 0.08068,-0.07658 0.166189,-0.135927 0.257812,-0.179688 0.09299,-0.04376 0.19509,-0.06641 0.308594,-0.06641 0.121709,0 0.222247,0.03221 0.298828,0.09375 0.07658,0.06154 0.115235,0.145287 0.115235,0.251953 0,0.08205 -0.01972,0.150963 -0.05664,0.207032 -0.03692,0.0547 -0.08612,0.0957 -0.150391,0.123047 -0.06427,0.02735 -0.139237,0.04102 -0.222656,0.04102 h -0.183594 l -0.07422,0.447266 H 24.3125 c 0.102564,0 0.188655,0.01425 0.259766,0.04297 0.07248,0.02872 0.127139,0.07381 0.164062,0.136718 0.03829,0.06154 0.05859,0.142945 0.05859,0.244141 0,0.135384 -0.04392,0.240021 -0.132813,0.3125 -0.08889,0.07111 -0.204848,0.107422 -0.345703,0.107422 -0.112136,0 -0.219116,-0.02206 -0.320312,-0.06445 -0.09983,-0.04376 -0.189434,-0.112673 -0.271485,-0.207032 l -0.365234,0.339844 c 0.118974,0.135384 0.261483,0.241193 0.429687,0.316406 0.168205,0.07385 0.358348,0.111328 0.570313,0.111328 0.228375,10e-7 0.425742,-0.03924 0.589844,-0.117187 0.164102,-0.07932 0.289432,-0.185125 0.376953,-0.316406 0.08889,-0.131282 0.132812,-0.277501 0.132812,-0.4375 0,-0.153162 -0.0285,-0.277907 -0.08594,-0.375 -0.05744,-0.09709 -0.137085,-0.170691 -0.238281,-0.222657 -0.09983,-0.05333 -0.214422,-0.08964 -0.345704,-0.107421 0.117607,-0.03419 0.218534,-0.08046 0.304688,-0.140625 0.08752,-0.06017 0.155262,-0.135721 0.203125,-0.22461 0.04786,-0.09026 0.07227,-0.196064 0.07227,-0.316406 0,-0.132649 -0.03865,-0.251927 -0.115235,-0.361328 -0.07521,-0.110769 -0.185121,-0.199984 -0.330078,-0.265625 -0.143589,-0.06701 -0.31831,-0.09961 -0.523437,-0.09961 z m 1.49414,0.07031 0.816407,2.84375 h 0.832031 l 0.820312,-2.84375 h -0.6875 l -0.537109,2.318359 -0.53125,-2.318359 z m -3.390625,1.998047 c -0.08342,0 -0.158772,0.02206 -0.228515,0.06445 -0.06974,0.04103 -0.126944,0.09627 -0.167969,0.166016 -0.04103,0.06838 -0.06055,0.145097 -0.06055,0.228515 0,0.08205 0.01952,0.156819 0.06055,0.226563 0.04103,0.06974 0.09822,0.12499 0.167969,0.166015 0.06974,0.04239 0.145097,0.06445 0.228515,0.06445 0.08479,10e-7 0.162093,-0.02206 0.230469,-0.06445 0.06974,-0.04102 0.12499,-0.09627 0.166016,-0.166015 0.04103,-0.06974 0.06055,-0.144512 0.06055,-0.226563 0,-0.08342 -0.01952,-0.16014 -0.06055,-0.228515 -0.04103,-0.06974 -0.09627,-0.12499 -0.166016,-0.166016 -0.06838,-0.04239 -0.145683,-0.06445 -0.230469,-0.06445 z"
         transform="scale(0.26458333)" />
      <path
         id="text76286"
         style="font-weight:bold;font-size:1.05833px;line-height:1.25;font-family:'Fira Code';-inkscape-font-specification:'Fira Code Bold';font-variant-ligatures:none;letter-spacing:0.0396875px;fill:#000000;stroke-width:0.999999"
         inkscape:label="REF"
         d="M 29.951172,55.21875 V 58.0625 H 30.625 v -1.087891 h 0.189453 l 0.615235,1.087891 h 0.761718 l -0.74414,-1.201172 c 0.106666,-0.04239 0.202909,-0.09822 0.289062,-0.167969 0.08615,-0.06974 0.15448,-0.154663 0.205078,-0.255859 0.0506,-0.101196 0.07617,-0.220085 0.07617,-0.355469 0,-0.294016 -0.098,-0.511489 -0.294922,-0.652343 -0.19692,-0.140855 -0.489944,-0.210938 -0.876951,-0.210938 z m 2.755859,0 v 2.84375 h 1.859375 v -0.482422 h -1.1875 v -0.726562 h 0.984375 v -0.472657 h -0.984375 v -0.68164 h 1.119141 l 0.06641,-0.480469 z m 2.671875,0 v 2.84375 h 0.675782 v -1.128906 h 0.996093 v -0.482422 h -0.996093 v -0.751953 h 1.123046 l 0.07031,-0.480469 z M 30.625,55.689453 h 0.222656 c 0.157265,0 0.276153,0.0328 0.355469,0.0957 0.08068,0.06154 0.121094,0.160124 0.121094,0.296875 0,0.150427 -0.03865,0.259749 -0.115235,0.328125 -0.07658,0.06838 -0.18766,0.103516 -0.333984,0.103516 h -0.25 z"
         transform="scale(0.26458333)" />
      <path
         id="text77256"
         style="font-weight:bold;font-size:1.05833px;line-height:1.25;font-family:'Fira Code';-inkscape-font-specification:'Fira Code Bold';font-variant-ligatures:none;letter-spacing:0.0396875px;fill:#000000;stroke-width:0.999999"
         inkscape:label="A0"
         d="m 44.628906,55.148438 c -0.341879,0 -0.597224,0.130014 -0.769531,0.392578 -0.17094,0.261195 -0.257813,0.626059 -0.257813,1.09375 10e-7,0.469058 0.08687,0.836264 0.257813,1.101562 0.172307,0.263931 0.427652,0.396485 0.769531,0.396484 0.339144,10e-7 0.595271,-0.132553 0.767578,-0.396484 0.173675,-0.265298 0.261719,-0.632504 0.261719,-1.101562 0,-0.467691 -0.08804,-0.832555 -0.261719,-1.09375 -0.172307,-0.262564 -0.428434,-0.392579 -0.767578,-0.392578 z m -3.017578,0.07031 -0.86914,2.84375 h 0.703124 l 0.150391,-0.613281 h 0.832031 l 0.150391,0.613281 h 0.720703 l -0.871094,-2.84375 z m 3.017578,0.398438 c 0.108034,0 0.19315,0.02674 0.251953,0.08008 0.01723,0.01527 0.02866,0.04352 0.04297,0.06641 l -0.685547,1.433594 c -0.002,-0.01577 -0.0061,-0.02235 -0.0078,-0.03906 -0.01231,-0.135384 -0.01953,-0.310105 -0.01953,-0.523437 0,-0.367862 0.03455,-0.628674 0.101562,-0.783204 0.06701,-0.155896 0.171449,-0.234375 0.316406,-0.234374 z m -2.61914,0.08594 0.308593,1.257813 h -0.615234 z m 3.013672,0.554687 c 0.0086,0.118441 0.02148,0.21231 0.02148,0.376954 0,0.25299 -0.01425,0.455627 -0.04297,0.607422 -0.02872,0.150426 -0.07518,0.258577 -0.136719,0.324218 -0.06017,0.06564 -0.139234,0.09766 -0.236328,0.09766 -0.08205,10e-7 -0.150377,-0.01367 -0.205078,-0.04102 -0.01641,-0.0088 -0.02472,-0.03377 -0.03906,-0.04687 z"
         transform="scale(0.26458333)" />
      <path
         id="text78498"
         style="font-weight:bold;font-size:1.05833px;line-height:1.25;font-family:'Fira Code';-inkscape-font-specification:'Fira Code Bold';font-variant-ligatures:none;letter-spacing:0.0396875px;fill:#000000;stroke-width:0.999999"
         inkscape:label="A1"
         d="m 51.210938,55.21875 -0.869141,2.84375 h 0.703125 l 0.15039,-0.615234 h 0.832032 l 0.15039,0.615234 h 0.71875 l -0.86914,-2.84375 z m 2.941406,0 -0.916016,0.558594 0.275391,0.443359 0.583984,-0.365234 v 1.714843 H 53.410156 V 58.0625 h 1.847656 v -0.492188 h -0.53125 V 55.21875 Z m -2.542969,0.484375 0.306641,1.257813 h -0.615235 z"
         transform="scale(0.26458333)" />
      <path
         id="text79690"
         style="font-weight:bold;font-size:1.05833px;line-height:1.25;font-family:'Fira Code';-inkscape-font-specification:'Fira Code Bold';font-variant-ligatures:none;letter-spacing:0.0396875px;fill:#000000;stroke-width:0.999999"
         inkscape:label="A2"
         d="m 63.771484,55.181641 c -0.228375,0 -0.420275,0.04588 -0.576172,0.134765 -0.155896,0.08752 -0.287864,0.203871 -0.394531,0.351563 l 0.398438,0.300781 c 0.07385,-0.101196 0.151153,-0.175575 0.230469,-0.220703 0.07932,-0.04513 0.171263,-0.06641 0.279296,-0.06641 0.121709,0 0.21561,0.0326 0.28125,0.09961 0.06701,0.06701 0.101563,0.158566 0.101563,0.273438 0,0.06701 -0.01308,0.136505 -0.03906,0.208984 -0.02598,0.07111 -0.06815,0.149589 -0.126953,0.234375 -0.05743,0.08479 -0.134742,0.181029 -0.230469,0.289062 -0.09436,0.108034 -0.209537,0.231607 -0.347656,0.371094 -0.138119,0.139487 -0.300931,0.299957 -0.488281,0.480469 v 0.458984 h 1.888672 l 0.07031,-0.49414 h -1.214843 c 0.216067,-0.19282 0.396644,-0.364613 0.542968,-0.513672 0.147692,-0.14906 0.266581,-0.284541 0.355469,-0.40625 0.08889,-0.123077 0.153116,-0.238255 0.191406,-0.347656 0.03966,-0.110769 0.05859,-0.224973 0.05859,-0.339844 0,-0.144957 -0.03748,-0.277314 -0.111328,-0.400391 -0.07248,-0.124444 -0.181801,-0.225568 -0.328125,-0.300781 -0.144957,-0.07521 -0.324948,-0.113281 -0.541016,-0.113281 z m -2.919922,0.07227 -0.86914,2.84375 h 0.703125 l 0.150391,-0.613281 h 0.832031 l 0.15039,0.613281 h 0.720703 l -0.871093,-2.84375 z m 0.398438,0.484375 0.308594,1.257813 h -0.615235 z"
         transform="scale(0.26458333)" />
      <path
         id="text80640"
         style="font-weight:bold;font-size:1.05833px;line-height:1.25;font-family:'Fira Code';-inkscape-font-specification:'Fira Code Bold';font-variant-ligatures:none;letter-spacing:0.0396875px;fill:#000000;stroke-width:0.999999"
         inkscape:label="A3"
         d="m 73.357422,55.148438 c -0.195555,0 -0.373789,0.03202 -0.535156,0.09766 -0.161367,0.06427 -0.307586,0.159344 -0.4375,0.285156 l 0.332031,0.34375 c 0.08068,-0.07658 0.166189,-0.135927 0.257812,-0.179688 0.09299,-0.04376 0.197043,-0.06641 0.310547,-0.06641 0.121709,0 0.220294,0.03221 0.296875,0.09375 0.07658,0.06154 0.115235,0.145287 0.115235,0.251953 0,0.08205 -0.01776,0.150963 -0.05469,0.207032 -0.03692,0.0547 -0.08807,0.0957 -0.152344,0.123047 -0.06427,0.02735 -0.137284,0.04102 -0.220703,0.04102 h -0.185547 l -0.07422,0.447266 h 0.259765 c 0.102564,0 0.188655,0.01425 0.259766,0.04297 0.07248,0.02872 0.127139,0.07381 0.164062,0.136718 0.03829,0.06154 0.05664,0.142945 0.05664,0.244141 0,0.135384 -0.04392,0.240021 -0.132812,0.3125 -0.08889,0.07111 -0.202896,0.107422 -0.34375,0.107422 -0.112137,0 -0.219117,-0.02206 -0.320313,-0.06445 -0.09983,-0.04376 -0.191386,-0.112673 -0.273437,-0.207032 l -0.365235,0.339844 c 0.118974,0.135384 0.263436,0.241193 0.431641,0.316406 0.168204,0.07385 0.358347,0.111328 0.570312,0.111328 0.228376,10e-7 0.423789,-0.03924 0.587891,-0.117187 0.164102,-0.07932 0.289432,-0.185125 0.376953,-0.316406 0.08889,-0.131282 0.134766,-0.277501 0.134766,-0.4375 0,-0.153162 -0.0285,-0.277907 -0.08594,-0.375 -0.05744,-0.09709 -0.137085,-0.170691 -0.238281,-0.222657 -0.09983,-0.05333 -0.216375,-0.08964 -0.347656,-0.107421 0.117606,-0.03419 0.220487,-0.08046 0.30664,-0.140625 0.08752,-0.06017 0.155262,-0.135721 0.203125,-0.22461 0.04786,-0.09026 0.07227,-0.196064 0.07227,-0.316406 0,-0.132649 -0.03865,-0.251927 -0.115234,-0.361328 -0.07521,-0.110769 -0.185122,-0.199984 -0.330079,-0.265625 -0.143589,-0.06701 -0.31831,-0.09961 -0.523437,-0.09961 z m -2.902344,0.07031 -0.871094,2.84375 h 0.703125 L 70.4375,57.449219 h 0.833984 l 0.148438,0.613281 h 0.720703 l -0.869141,-2.84375 z m 0.396484,0.484375 0.308594,1.257813 h -0.615234 z"
         transform="scale(0.26458333)" />
      <path
         id="path101921"
         style="font-weight:bold;font-size:1.05833px;line-height:1.25;font-family:'Fira Code';-inkscape-font-specification:'Fira Code Bold';font-variant-ligatures:none;letter-spacing:0.0396875px;fill:#000000;stroke-width:0.999999"
         inkscape:label="A4"
         d="m 83.15625,55.181641 -1.181641,1.888671 V 57.5 h 1.177735 l 0.0039,0.597656 h 0.623047 V 57.5 h 0.285156 v -0.486328 h -0.285156 v -1.832031 z m -3.150391,0.07227 -0.86914,2.84375 h 0.703125 l 0.15039,-0.613281 h 0.832032 l 0.15039,0.613281 h 0.71875 l -0.86914,-2.84375 z m 0.398438,0.484375 0.306641,1.257813 H 80.095703 Z M 83.15625,56.1875 v 0.826172 h -0.511719 z"
         transform="scale(0.26458333)" />
      <path
         id="text82782"
         style="font-weight:bold;font-size:1.05833px;line-height:1.25;font-family:'Fira Code';-inkscape-font-specification:'Fira Code Bold';font-variant-ligatures:none;letter-spacing:0.0396875px;fill:#000000;stroke-width:0.999999"
         inkscape:label="A5"
         d="m 89.630859,55.183594 -0.86914,2.84375 h 0.703125 l 0.15039,-0.613282 h 0.832032 l 0.15039,0.613282 h 0.720703 l -0.871093,-2.84375 z m 2.169922,0 v 1.527344 h 0.435547 c 0.06291,-0.03556 0.124791,-0.05859 0.183594,-0.07227 0.0588,-0.01367 0.11405,-0.02148 0.166016,-0.02148 0.07658,0 0.143736,0.01601 0.201171,0.04883 0.05744,0.03145 0.10136,0.08319 0.132813,0.154296 0.03282,0.07111 0.04883,0.165597 0.04883,0.283204 0,0.147691 -0.0451,0.267751 -0.136719,0.359375 -0.09026,0.09162 -0.210901,0.136718 -0.361328,0.136718 -0.09846,0 -0.192947,-0.02128 -0.283203,-0.06641 -0.08889,-0.0465 -0.167952,-0.113651 -0.236328,-0.201172 l -0.373047,0.339844 c 0.105299,0.128547 0.237852,0.232598 0.396484,0.310547 0.158632,0.07658 0.34038,0.113281 0.546875,0.113281 0.222906,0 0.419101,-0.04275 0.585938,-0.128906 0.166837,-0.08752 0.295681,-0.207581 0.388672,-0.359375 0.09436,-0.151795 0.142578,-0.32222 0.142578,-0.513672 0,-0.191452 -0.0369,-0.356021 -0.109375,-0.494141 -0.07111,-0.138119 -0.167354,-0.244513 -0.289063,-0.318359 -0.120341,-0.07385 -0.254066,-0.111328 -0.40039,-0.111328 -0.06291,0 -0.131232,0.0078 -0.205078,0.02148 -0.07385,0.01367 -0.145101,0.03554 -0.214844,0.06836 v -0.613282 h 1.039062 l 0.07227,-0.46289 z m -1.771484,0.484375 0.308594,1.257812 h -0.615235 z"
         transform="scale(0.26458333)" />
      <path
         id="text83938"
         style="font-weight:bold;font-size:1.05833px;line-height:1.25;font-family:'Fira Code';-inkscape-font-specification:'Fira Code Bold';font-variant-ligatures:none;letter-spacing:0.0396875px;fill:#000000;stroke-width:0.999999"
         inkscape:label="A6"
         d="m 102.42969,55.148438 c -0.25573,-10e-7 -0.47554,0.06891 -0.66016,0.207031 -0.18325,0.138119 -0.324,0.329433 -0.42383,0.574219 -0.0985,0.244785 -0.14843,0.527657 -0.14843,0.847656 0,0.183247 0.0189,0.355429 0.0586,0.519531 0.0397,0.162735 0.10271,0.307782 0.1875,0.433594 0.0848,0.124444 0.19411,0.222443 0.32812,0.294922 0.13402,0.07111 0.29566,0.107422 0.48438,0.107421 0.20649,0 0.38473,-0.04763 0.53516,-0.140624 0.15179,-0.09299 0.26951,-0.21715 0.35156,-0.373047 0.0821,-0.157265 0.12305,-0.3314 0.12304,-0.521485 1e-5,-0.201025 -0.0363,-0.370279 -0.10742,-0.509765 -0.0711,-0.140855 -0.16676,-0.247834 -0.28711,-0.320313 -0.12034,-0.07385 -0.25465,-0.111328 -0.40234,-0.111328 -0.11214,0 -0.22497,0.02557 -0.33984,0.07617 -0.093,0.04095 -0.1721,0.113736 -0.24805,0.191406 0.009,-0.150705 0.024,-0.2942 0.0645,-0.404297 0.0506,-0.134016 0.11834,-0.236897 0.20313,-0.30664 0.0862,-0.06974 0.18356,-0.103516 0.29297,-0.103516 0.0602,0 0.12205,0.01015 0.18359,0.0293 0.0629,0.01778 0.12108,0.04628 0.17578,0.08594 l 0.2461,-0.394531 c -0.0793,-0.05607 -0.17146,-0.09999 -0.2754,-0.132812 -0.10256,-0.03282 -0.21598,-0.04883 -0.34179,-0.04883 z m -3.224612,0.07031 -0.86914,2.84375 h 0.703124 l 0.150391,-0.613281 h 0.832027 l 0.1504,0.613281 h 0.71874 l -0.86914,-2.84375 z m 0.398438,0.484375 0.30664,1.257813 h -0.615234 z m 2.697264,0.900391 c 0.067,0 0.12343,0.01913 0.16992,0.05469 0.0465,0.03419 0.0828,0.09002 0.10742,0.167969 0.026,0.07658 0.0391,0.178679 0.0391,0.308594 0,0.147691 -0.0285,0.274975 -0.0859,0.378906 -0.0561,0.103931 -0.14587,0.154297 -0.26758,0.154297 -0.15316,0 -0.2578,-0.0777 -0.3125,-0.236328 -0.0468,-0.135758 -0.0685,-0.344666 -0.0742,-0.59961 0.0521,-0.06032 0.10573,-0.119414 0.16993,-0.15625 0.0834,-0.04786 0.16775,-0.07227 0.2539,-0.07227 z"
         transform="scale(0.26458333)" />
      <path
         id="text86856"
         style="font-weight:bold;font-size:1.05833px;line-height:1.25;font-family:'Fira Code';-inkscape-font-specification:'Fira Code Bold';font-variant-ligatures:none;letter-spacing:0.0396875px;fill:#000000;stroke-width:0.999999"
         inkscape:label="A7"
         d="m 108.84961,55.185547 -0.87109,2.84375 h 0.70507 l 0.14844,-0.613281 h 0.83399 l 0.14843,0.613281 h 0.72071 l -0.86914,-2.84375 z m 2.06445,0 v 0.488281 h 1.25 l -1.06054,2.230469 0.61523,0.189453 1.10156,-2.46875 v -0.439453 z m -1.66797,0.484375 0.3086,1.257812 h -0.61524 z"
         transform="scale(0.26458333)" />
      <path
         id="text87694"
         style="font-weight:bold;font-size:1.05833px;line-height:1.25;font-family:'Fira Code';-inkscape-font-specification:'Fira Code Bold';font-variant-ligatures:none;letter-spacing:0.0396875px;fill:#000000;stroke-width:0.999999"
         inkscape:label="5V"
         d="m 117.76172,55.183594 v 1.527344 h 0.4375 c 0.0629,-0.03556 0.12284,-0.05859 0.18164,-0.07227 0.0588,-0.01367 0.11405,-0.02148 0.16602,-0.02148 0.0766,0 0.14373,0.01601 0.20117,0.04883 0.0574,0.03145 0.10331,0.08319 0.13476,0.154296 0.0328,0.07111 0.0488,0.165597 0.0488,0.283204 0,0.147691 -0.047,0.267751 -0.13867,0.359375 -0.0903,0.09162 -0.20895,0.136718 -0.35938,0.136718 -0.0985,0 -0.19294,-0.02128 -0.2832,-0.06641 -0.0889,-0.0465 -0.16795,-0.113651 -0.23633,-0.201172 l -0.37304,0.339844 c 0.10529,0.128547 0.23589,0.232598 0.39453,0.310547 0.15863,0.07658 0.34233,0.113281 0.54883,0.113281 0.2229,0 0.41714,-0.04275 0.58398,-0.128906 0.16684,-0.08752 0.29763,-0.207581 0.39062,-0.359375 0.0944,-0.151795 0.14063,-0.32222 0.14063,-0.513672 0,-0.191452 -0.0369,-0.356021 -0.10938,-0.494141 -0.0711,-0.138119 -0.16735,-0.244513 -0.28906,-0.318359 -0.12034,-0.07385 -0.25211,-0.111328 -0.39844,-0.111328 -0.0629,0 -0.13123,0.0078 -0.20507,0.02148 -0.0739,0.01367 -0.14706,0.03554 -0.2168,0.06836 v -0.613282 h 1.04102 l 0.0723,-0.46289 z m 2.22851,0 0.81641,2.84375 h 0.83203 l 0.82031,-2.84375 h -0.68945 l -0.53515,2.318359 -0.53126,-2.318359 z"
         transform="scale(0.26458333)" />
      <path
         id="text88446"
         style="font-weight:bold;font-size:1.05833px;line-height:1.25;font-family:'Fira Code';-inkscape-font-specification:'Fira Code Bold';font-variant-ligatures:none;letter-spacing:0.0396875px;fill:#000000;stroke-width:0.999999"
         inkscape:label="RST"
         d="m 129.54883,55.148438 c -0.19556,0 -0.37438,0.03202 -0.53711,0.09766 -0.16274,0.06427 -0.29158,0.158173 -0.38867,0.28125 -0.0957,0.123076 -0.14453,0.271638 -0.14453,0.445312 0,0.14359 0.0297,0.26892 0.0898,0.376953 0.0615,0.108034 0.1609,0.203106 0.29492,0.285157 0.13539,0.08205 0.31362,0.158186 0.53516,0.226562 0.13265,0.03966 0.23475,0.07694 0.30859,0.115234 0.0752,0.03829 0.1287,0.083 0.16016,0.13086 0.0315,0.04786 0.0469,0.106038 0.0469,0.175781 0,0.07385 -0.0189,0.137488 -0.0586,0.189453 -0.0397,0.05197 -0.0949,0.08984 -0.16602,0.117188 -0.0711,0.02735 -0.15369,0.04102 -0.24804,0.04102 -0.1518,0 -0.29079,-0.02304 -0.41797,-0.07227 -0.12718,-0.0506 -0.24431,-0.12322 -0.34961,-0.214844 l -0.33985,0.378906 c 0.11898,0.116239 0.26871,0.213653 0.44922,0.292969 0.18188,0.07795 0.4058,0.117188 0.67383,0.117187 0.24205,0 0.44879,-0.03865 0.62109,-0.115234 0.17231,-0.07658 0.30487,-0.182975 0.39649,-0.318359 0.093,-0.135384 0.14062,-0.290387 0.14062,-0.466797 0,-0.175042 -0.0351,-0.320676 -0.10351,-0.435547 -0.067,-0.114871 -0.16442,-0.209943 -0.29297,-0.285156 -0.12718,-0.07658 -0.27984,-0.142565 -0.45898,-0.197266 -0.15043,-0.04786 -0.26873,-0.08944 -0.35352,-0.125 -0.0848,-0.03692 -0.14355,-0.07616 -0.17773,-0.117187 -0.0342,-0.04103 -0.0527,-0.09022 -0.0527,-0.150391 0,-0.06154 0.0191,-0.113271 0.0547,-0.154297 0.0356,-0.04102 0.0842,-0.07128 0.14844,-0.0918 0.0643,-0.02188 0.13982,-0.0332 0.22461,-0.0332 0.11487,0 0.22712,0.01894 0.33789,0.05859 0.11077,0.03829 0.21482,0.099 0.31054,0.179687 l 0.31641,-0.365234 c -0.12308,-0.117606 -0.26734,-0.208579 -0.43555,-0.271484 -0.1682,-0.06427 -0.36381,-0.0957 -0.58398,-0.0957 z m -3.63867,0.07031 v 2.84375 h 0.67382 v -1.087891 h 0.18946 l 0.61523,1.087891 h 0.76172 l -0.74414,-1.199219 c 0.10667,-0.04239 0.20291,-0.09822 0.28906,-0.167969 0.0862,-0.06974 0.15448,-0.156616 0.20508,-0.257812 0.0506,-0.101196 0.0762,-0.218131 0.0762,-0.353516 0,-0.294016 -0.098,-0.511489 -0.29492,-0.652343 -0.19692,-0.140855 -0.48995,-0.212891 -0.87695,-0.212891 z m 5.07812,0 v 0.515625 h 0.79688 V 58.0625 h 0.67382 v -2.328125 h 0.76172 l 0.0684,-0.515625 z m -4.4043,0.472656 h 0.22266 c 0.15727,0 0.27615,0.03084 0.35547,0.09375 0.0807,0.06154 0.12109,0.162077 0.12109,0.298828 0,0.150427 -0.0386,0.25975 -0.11523,0.328125 -0.0766,0.06838 -0.18766,0.101563 -0.33399,0.101563 h -0.25 z"
         transform="scale(0.26458333)" />
      <path
         id="rect2281"
         style="font-variation-settings:'wght' 700;opacity:1;fill:#000000;stroke-width:0"
         inkscape:label="GND"
         d="M 134.40039,54.720703 V 67.199219 H 144 V 54.720703 Z m 2.37695,0.427735 c 0.20787,-10e-7 0.38317,0.03143 0.52539,0.0957 0.14223,0.06427 0.26814,0.148607 0.37891,0.253906 l -0.35352,0.365234 c -0.0861,-0.07658 -0.16874,-0.133002 -0.24804,-0.169922 -0.0793,-0.03693 -0.16834,-0.05469 -0.26953,-0.05469 -0.0957,0 -0.18493,0.01835 -0.26563,0.05664 -0.0793,0.03692 -0.14878,0.0951 -0.20898,0.175782 -0.0588,0.07932 -0.10392,0.183368 -0.13672,0.310547 -0.0328,0.125811 -0.0488,0.277886 -0.0488,0.457031 0,0.24752 0.019,0.445472 0.0586,0.591797 0.041,0.146324 0.10345,0.250183 0.18555,0.314453 0.0821,0.0629 0.18474,0.0957 0.31055,0.0957 0.067,0 0.13065,-0.0084 0.18945,-0.02344 0.0588,-0.01641 0.11346,-0.03652 0.16406,-0.0625 v -0.650391 -0.228516 h 0.63477 v 1.169922 c -0.14222,0.08752 -0.2949,0.157015 -0.45898,0.208985 -0.16274,0.05196 -0.34097,0.07812 -0.53516,0.07812 -0.2694,10e-7 -0.49703,-0.05642 -0.68164,-0.169921 -0.18462,-0.114872 -0.32422,-0.284322 -0.41992,-0.50586 -0.0943,-0.222905 -0.14063,-0.496796 -0.14063,-0.822265 0,-0.242051 0.0326,-0.456011 0.0996,-0.640625 0.0684,-0.185983 0.16286,-0.3404 0.2832,-0.464844 0.12035,-0.125812 0.25993,-0.220886 0.41993,-0.285156 0.16,-0.06427 0.33296,-0.0957 0.51757,-0.0957 z m 1.41211,0.07031 h 0.83789 l 0.72657,2.275391 c -0.0151,-0.08615 -0.0305,-0.187667 -0.0469,-0.306641 -0.0151,-0.120342 -0.0282,-0.254652 -0.0391,-0.402344 -0.0106,-0.147692 -0.0176,-0.30699 -0.0176,-0.476562 V 55.21875 h 0.57227 v 2.84375 h -0.81641 l -0.74805,-2.287109 c 0.01,0.06154 0.0204,0.135136 0.0312,0.222656 0.0123,0.08615 0.0243,0.184351 0.0352,0.291015 0.0109,0.105299 0.0184,0.216964 0.0254,0.335938 0.007,0.118974 0.0117,0.24079 0.0117,0.365234 V 58.0625 h -0.57227 z m 2.61133,0 h 0.7168 c 0.18188,0 0.35777,0.0203 0.52734,0.05859 0.17094,0.03692 0.32302,0.105835 0.45703,0.207031 0.13539,0.09983 0.24297,0.241166 0.32227,0.425781 0.0793,0.183248 0.11914,0.422781 0.11914,0.716797 0,0.231111 -0.025,0.428281 -0.0742,0.59375 -0.0492,0.164102 -0.11813,0.300755 -0.20703,0.410156 -0.0875,0.109402 -0.18845,0.196856 -0.30469,0.259766 -0.11624,0.0629 -0.24098,0.106833 -0.375,0.132813 -0.13401,0.02598 -0.27184,0.03906 -0.41406,0.03906 h -0.76758 z m 0.67188,0.488281 v 1.869141 h 0.14453 c 0.093,0 0.1773,-0.01425 0.2539,-0.04297 0.0779,-0.03008 0.14508,-0.08065 0.20118,-0.150391 0.0561,-0.07111 0.0988,-0.167939 0.1289,-0.291015 0.0301,-0.123077 0.0449,-0.277494 0.0449,-0.464844 0,-0.191452 -0.016,-0.348408 -0.0488,-0.46875 -0.0315,-0.120341 -0.0754,-0.211704 -0.13282,-0.277344 -0.0561,-0.06564 -0.12262,-0.112098 -0.19922,-0.136718 -0.0766,-0.02462 -0.15914,-0.03711 -0.24804,-0.03711 z m -2.27344,3.332031 a 3.3599999,3.3599999 0 0 1 3.36133,3.361329 3.3599999,3.3599999 0 0 1 -3.36133,3.359375 3.3599999,3.3599999 0 0 1 -3.35938,-3.359375 3.3599999,3.3599999 0 0 1 3.35938,-3.361329 z"
         transform="scale(0.26458333)" />
      <path
         id="text91188"
         style="font-weight:bold;font-size:1.05833px;line-height:1.25;font-family:'Fira Code';-inkscape-font-specification:'Fira Code Bold';font-variant-ligatures:none;letter-spacing:0.0396875px;fill:#000000;stroke-width:0.999999"
         inkscape:label="VIN"
         d="m 145.0625,55.21875 0.81641,2.84375 h 0.83398 l 0.82031,-2.84375 h -0.68945 l -0.53516,2.318359 -0.53125,-2.318359 z m 2.92188,0 v 0.492188 h 0.58593 v 1.855468 h -0.58593 V 58.0625 h 1.8457 v -0.496094 h -0.58594 v -1.855468 h 0.58594 V 55.21875 Z m 2.51757,0 v 2.84375 h 0.57227 v -1.074219 c 0,-0.124444 -0.003,-0.24626 -0.01,-0.365234 -0.007,-0.118974 -0.0164,-0.230639 -0.0273,-0.335938 -0.0109,-0.106666 -0.0229,-0.202909 -0.0352,-0.289062 -0.0109,-0.08752 -0.0217,-0.163071 -0.0312,-0.224609 l 0.75,2.289062 h 0.81641 v -2.84375 h -0.57227 v 1.089844 c 0,0.169572 0.005,0.326917 0.0156,0.474609 0.0109,0.147692 0.024,0.282002 0.0391,0.402344 0.0164,0.118974 0.0318,0.22244 0.0469,0.308594 l -0.72657,-2.275391 z"
         transform="scale(0.26458333)" />
    </g>
    <g
       id="g54314"
       inkscape:label="J1"
       style="fill:#000000">
      <path
         id="path99519"
         style="font-weight:bold;font-size:1.05833px;line-height:1.25;font-family:'Fira Code';-inkscape-font-specification:'Fira Code Bold';font-variant-ligatures:none;letter-spacing:0.0396875px;fill:#000000;stroke-width:0.264583"
         d="m 4.4731119,2.4086385 c -0.055524,0.00138 -0.1029234,0.013091 -0.1415933,0.03514 -0.041248,0.023157 -0.075648,0.053941 -0.1038696,0.093018 l 0.104903,0.079582 c 0.01954,-0.026775 0.039993,-0.046454 0.060978,-0.058394 0.020987,-0.01194 0.04583,-0.01757 0.074414,-0.01757 0.032203,0 0.057047,0.00863 0.074414,0.026355 0.01773,0.017729 0.026355,0.041954 0.026355,0.072347 0,0.01773 -0.00346,0.036117 -0.010335,0.055294 -0.00687,0.018814 -0.018031,0.039579 -0.03359,0.062012 C 4.50959,2.7788565 4.489137,2.8043195 4.46381,2.8329035 4.438844,2.8614875 4.40837,2.8941825 4.371826,2.9310885 4.335282,2.9679945 4.292204,3.0104515 4.2426348,3.0582126 V 3.1796508 H 4.7423469 L 4.7609497,3.0489096 H 4.4395223 c 0.057168,-0.051017 0.1054626,-0.096471 0.1441773,-0.135909 0.039077,-0.039439 0.070016,-0.075285 0.093534,-0.107487 0.023519,-0.032564 0.040512,-0.063038 0.050643,-0.091984 0.010493,-0.029307 0.015502,-0.059524 0.015502,-0.089917 0,-0.038353 -0.0094,-0.073373 -0.028939,-0.1059367 -0.019177,-0.032926 -0.048101,-0.059682 -0.086816,-0.079582 -0.038353,-0.0199 -0.086492,-0.029456 -0.1436603,-0.029456 -0.00378,0 -0.00715,-9.18e-5 -0.010853,0 z m -1.6138548,0.018603 v 0.7524089 h 0.2025716 c 0.037629,0 0.074612,-0.00346 0.1100706,-0.010335 0.035459,-0.00687 0.068464,-0.018497 0.099219,-0.03514 0.030755,-0.016642 0.057459,-0.039784 0.080615,-0.068729 0.023519,-0.028946 0.041751,-0.065102 0.054777,-0.1085207 0.013025,-0.04378 0.019637,-0.095948 0.019637,-0.1570964 C 3.426148,2.7220381 3.415612,2.6586611 3.394625,2.610177 3.3736393,2.5613308 3.3451794,2.5239353 3.3093585,2.4975219 3.2739004,2.4707473 3.2336639,2.4525142 3.1884358,2.4427449 3.1435696,2.4326136 3.0970315,2.427242 3.0489096,2.427242 Z m 0.9399942,0 L 3.556372,2.5750361 3.629236,2.6928584 3.7837485,2.5962234 V 3.0499431 H 3.6028809 v 0.1297077 h 0.488859 V 3.0499431 H 3.95118 V 2.427242 Z M 3.037024,2.5564329 h 0.03824 c 0.023519,0 0.045367,0.00331 0.065629,0.00982 0.020262,0.00651 0.037875,0.018289 0.05271,0.035657 0.015198,0.017368 0.026818,0.042057 0.03514,0.073897 0.00868,0.03184 0.01292,0.073368 0.01292,0.1240234 0,0.04957 -0.00393,0.090426 -0.011885,0.12299 -0.00796,0.032564 -0.019272,0.058183 -0.034106,0.076998 -0.014835,0.018452 -0.032603,0.031831 -0.053227,0.039791 -0.020262,0.0076 -0.042575,0.011369 -0.067179,0.011369 H 3.037025 Z"
         inkscape:label="D12" />
      <path
         id="path99512"
         style="font-weight:bold;font-size:1.05833px;line-height:1.25;font-family:'Fira Code';-inkscape-font-specification:'Fira Code Bold';font-variant-ligatures:none;letter-spacing:0.0396875px;fill:#000000;stroke-width:0.264583"
         d="m 5.3883014,2.4179402 v 0.7524089 h 0.2030884 c 0.03763,0 0.074096,-0.00346 0.1095541,-0.010335 0.035459,-0.00687 0.068464,-0.019013 0.099219,-0.035657 0.030755,-0.016642 0.057459,-0.039267 0.080615,-0.068213 0.023519,-0.028946 0.042269,-0.065102 0.055294,-0.1085204 0.013025,-0.04378 0.019121,-0.096465 0.019121,-0.1576131 2e-7,-0.077792 -0.010536,-0.1406517 -0.031523,-0.1891358 C 5.902684,2.5520291 5.8747408,2.5141168 5.8389199,2.4877034 5.8034618,2.4609288 5.7627083,2.4426957 5.7174804,2.4329264 5.6726147,2.4227951 5.6260766,2.4179402 5.577954,2.4179402 Z m 0.9399945,0 -0.2423626,0.1477946 0.072347,0.1173055 0.1550291,-0.096118 V 3.0406414 H 6.1319253 V 3.1703491 H 6.6207846 V 3.0406414 H 6.4802247 V 2.4179402 Z m 0.6909138,0 -0.2423625,0.1477946 0.072347,0.1173055 0.1550292,-0.096118 V 3.0406414 H 6.8228392 V 3.1703491 H 7.3116984 V 3.0406414 H 7.1711385 V 2.4179402 Z M 5.5660684,2.5471313 h 0.038241 c 0.023519,0 0.045367,0.00331 0.065629,0.00982 0.020262,0.00651 0.037875,0.018289 0.05271,0.035657 0.015198,0.017368 0.026818,0.042057 0.03514,0.073897 0.00868,0.03184 0.01292,0.072851 0.01292,0.1235067 0,0.04957 -0.00393,0.090943 -0.011885,0.1235067 -0.00796,0.032564 -0.019272,0.058183 -0.034106,0.076998 -0.014835,0.018455 -0.032603,0.031831 -0.053227,0.039791 -0.020262,0.0076 -0.042575,0.011369 -0.067179,0.011369 h -0.038241 z"
         inkscape:label="D11" />
      <path
         id="path99505"
         style="font-weight:bold;font-size:1.05833px;line-height:1.25;font-family:'Fira Code';-inkscape-font-specification:'Fira Code Bold';font-variant-ligatures:none;letter-spacing:0.0396875px;fill:#000000;stroke-width:0.264583"
         d="m 9.5627236,2.3993367 c -0.082173,0.00407 -0.1443286,0.038742 -0.1870686,0.1038696 -0.045228,0.069108 -0.067696,0.165645 -0.067696,0.2893882 0,0.1241049 0.022468,0.2212615 0.067696,0.2914549 0.04559,0.069832 0.1136663,0.1049031 0.2041218,0.1049031 0.089732,0 0.1569823,-0.035071 0.2025716,-0.1049031 0.045952,-0.070193 0.069247,-0.16735 0.069247,-0.2914549 0,-0.1237432 -0.023294,-0.2202801 -0.069247,-0.2893882 -0.04559,-0.06947 -0.1128395,-0.1038696 -0.2025716,-0.1038696 -0.00565,0 -0.011575,-2.725e-4 -0.017052,0 z m -1.6340087,0.018603 v 0.7524087 h 0.2025717 c 0.037629,0 0.074095,-0.00346 0.1095539,-0.010335 0.035459,-0.00687 0.068981,-0.018497 0.099736,-0.03514 0.030755,-0.016642 0.057459,-0.039267 0.080615,-0.068213 0.023519,-0.028946 0.041752,-0.065619 0.054777,-0.1090372 0.013025,-0.04378 0.019637,-0.095948 0.019637,-0.1570964 3e-7,-0.077792 -0.010536,-0.1411684 -0.031523,-0.1896526 -0.020985,-0.048847 -0.049446,-0.086242 -0.085266,-0.112655 -0.035458,-0.026775 -0.075695,-0.045008 -0.1209228,-0.054777 -0.044866,-0.010131 -0.091404,-0.015503 -0.1395264,-0.015503 z m 0.9399942,0 -0.2428793,0.1477946 0.072864,0.1178224 0.1545127,-0.096635 V 3.0406414 H 8.6723388 v 0.1297074 h 0.488859 V 3.0406414 H 9.0206379 V 2.4179402 Z M 9.5797768,2.52336 c 0.028583,0 0.050587,0.00708 0.066146,0.021187 0.00474,0.0042 0.00901,0.00964 0.01292,0.01602 L 9.4753905,2.9429728 c -4.762e-4,-0.00387 -0.00114,-0.0078 -0.00156,-0.011885 -0.00325,-0.035821 -0.00517,-0.082049 -0.00517,-0.1384927 0,-0.09733 0.00914,-0.1663366 0.026872,-0.2072226 0.01773,-0.041248 0.045879,-0.062012 0.084233,-0.062012 z M 8.1064819,2.547131 h 0.03824 c 0.023519,0 0.045367,0.00331 0.065629,0.00982 0.020262,0.00651 0.037359,0.018806 0.052193,0.036173 0.015198,0.017367 0.027335,0.04154 0.035656,0.07338 0.00868,0.03184 0.01292,0.073368 0.01292,0.1240234 0,0.04957 -0.00393,0.090426 -0.011885,0.12299 -0.00796,0.032564 -0.019272,0.058183 -0.034107,0.076998 -0.014835,0.018455 -0.032603,0.031831 -0.053227,0.039791 -0.020262,0.0076 -0.042575,0.011369 -0.067179,0.011369 h -0.03824 z m 1.5797484,0.1410766 c 0.00191,0.029684 0.0031,0.064405 0.0031,0.1043866 0,0.066937 -0.00377,0.1205516 -0.011369,0.1607135 -0.0076,0.039801 -0.019891,0.068416 -0.036174,0.085783 -0.01592,0.017367 -0.036322,0.025839 -0.062012,0.025839 -0.021709,0 -0.039787,-0.00361 -0.05426,-0.010851 -0.00441,-0.00238 -0.00856,-0.00524 -0.012401,-0.00878 z"
         inkscape:label="D0" />
      <path
         id="path99500"
         style="font-weight:bold;font-size:1.05833px;line-height:1.25;font-family:'Fira Code';-inkscape-font-specification:'Fira Code Bold';font-variant-ligatures:none;letter-spacing:0.0396875px;fill:#000000;stroke-width:0.264583"
         d="m 11.760006,2.392102 c -0.04792,0.00131 -0.09174,0.012559 -0.130742,0.03359 -0.04125,0.022433 -0.07394,0.054044 -0.09818,0.094568 -0.02388,0.040524 -0.03566,0.087837 -0.03566,0.1421102 0,0.048484 0.0096,0.090942 0.02842,0.127124 0.01918,0.036183 0.0448,0.064333 0.077,0.084233 0.0322,0.019899 0.06805,0.029456 0.107487,0.029456 0.03763,0 0.07032,-0.00754 0.09818,-0.022738 0.01898,-0.010464 0.03765,-0.023056 0.05581,-0.038758 -0.0092,0.032863 -0.02369,0.06206 -0.04289,0.08785 -0.02533,0.03365 -0.06025,0.06242 -0.104386,0.0863 -0.04414,0.023519 -0.09837,0.043146 -0.162781,0.059428 l 0.03566,0.120406 c 0.07888,-0.016282 0.147112,-0.03813 0.204639,-0.065629 0.05789,-0.02786 0.10536,-0.061795 0.142627,-0.1023194 0.03763,-0.040524 0.06511,-0.088302 0.0832,-0.1436602 0.01845,-0.055721 0.02791,-0.1197171 0.02791,-0.1917198 0,-0.059339 -0.01038,-0.1117135 -0.03101,-0.1565795 -0.02062,-0.045228 -0.0511,-0.080093 -0.09198,-0.1054199 -0.04088,-0.025327 -0.09248,-0.038241 -0.153996,-0.038241 -0.0032,0 -0.0061,-8.76e-5 -0.0093,0 z m -0.946196,0.01912 v 0.7518919 h 0.203088 c 0.03763,0 0.07409,-0.00346 0.109554,-0.010335 0.03546,-0.00687 0.06847,-0.018497 0.09922,-0.03514 0.03075,-0.016642 0.05745,-0.039267 0.08062,-0.068213 0.02352,-0.028946 0.04175,-0.065102 0.05478,-0.1085207 0.01303,-0.04378 0.01964,-0.096465 0.01964,-0.1576131 0,-0.077792 -0.01054,-0.1406516 -0.03152,-0.1891356 -0.02099,-0.048846 -0.04945,-0.086759 -0.08527,-0.113172 -0.03546,-0.026775 -0.0757,-0.045008 -0.120923,-0.054777 -0.04487,-0.010131 -0.09141,-0.014986 -0.139526,-0.014986 z m 0.954464,0.1028361 c 0.02967,0 0.05167,0.00899 0.06615,0.026355 0.01484,0.017006 0.02461,0.042935 0.02894,0.078031 0.0044,0.032557 0.0065,0.072798 0.0062,0.1209229 -0.01348,0.011361 -0.02699,0.020767 -0.04031,0.027905 -0.02026,0.010856 -0.04273,0.01602 -0.0677,0.01602 -0.02569,0 -0.04821,-0.00909 -0.06666,-0.027905 -0.01809,-0.018814 -0.02687,-0.051355 -0.02687,-0.097668 0,-0.049208 0.0088,-0.085364 0.02687,-0.1085205 0.01809,-0.023157 0.04263,-0.03514 0.07338,-0.03514 z m -0.776697,0.026355 h 0.03824 c 0.02352,0 0.04537,0.00331 0.06563,0.00982 0.02027,0.00651 0.03788,0.018289 0.05271,0.035657 0.0152,0.017368 0.02682,0.042057 0.03514,0.073897 0.0087,0.03184 0.01292,0.072852 0.01292,0.1235067 0,0.04957 -0.0039,0.090943 -0.01188,0.1235067 -0.008,0.032564 -0.01927,0.058183 -0.03411,0.076998 -0.01483,0.018455 -0.0326,0.031314 -0.05323,0.039274 -0.02026,0.0076 -0.04257,0.011885 -0.06718,0.011885 h -0.03824 z"
         inkscape:label="D9" />
      <path
         id="path99495"
         style="font-weight:bold;font-size:1.05833px;line-height:1.25;font-family:'Fira Code';-inkscape-font-specification:'Fira Code Bold';font-variant-ligatures:none;letter-spacing:0.0396875px;fill:#000000;stroke-width:0.264583"
         d="m 14.298352,2.3993367 c -0.03079,0.00107 -0.05991,0.00592 -0.08682,0.014469 -0.03039,0.00941 -0.05679,0.02325 -0.07958,0.041341 -0.02243,0.018092 -0.04004,0.03994 -0.05271,0.065629 -0.01267,0.025328 -0.01912,0.054098 -0.01912,0.0863 0,0.04161 0.0083,0.075079 0.02532,0.1007692 0.01737,0.025326 0.04536,0.050327 0.08372,0.074931 -0.04233,0.018452 -0.0758,0.043607 -0.100769,0.075448 -0.02497,0.031841 -0.03772,0.069598 -0.03772,0.1126549 0,0.038715 0.01023,0.074716 0.03049,0.1080037 0.02062,0.032926 0.05161,0.059319 0.0925,0.079582 0.04125,0.020262 0.09233,0.030489 0.153479,0.030489 0.0626,0 0.114456,-0.010538 0.156063,-0.031522 0.04197,-0.020987 0.07358,-0.048516 0.09457,-0.082166 0.02135,-0.034012 0.03204,-0.070323 0.03204,-0.1090372 0,-0.042333 -0.01162,-0.080348 -0.03514,-0.1147217 -0.02316,-0.034735 -0.05993,-0.065107 -0.110587,-0.090434 0.04016,-0.022794 0.06955,-0.04702 0.08837,-0.072347 0.01882,-0.025329 0.02791,-0.055337 0.02791,-0.090434 0,-0.030755 -0.0058,-0.05844 -0.01809,-0.082682 -0.01194,-0.024604 -0.02924,-0.045161 -0.05168,-0.062528 -0.02207,-0.017368 -0.04816,-0.030746 -0.07855,-0.039791 -0.03039,-0.00941 -0.06422,-0.013952 -0.100769,-0.013952 -0.0045,0 -0.0085,-1.527e-4 -0.01292,0 z m -0.948263,0.018603 v 0.7524087 h 0.203089 c 0.03763,0 0.07409,-0.00346 0.109554,-0.010335 0.03546,-0.00687 0.06846,-0.018497 0.09922,-0.03514 0.03076,-0.016642 0.05798,-0.039267 0.08113,-0.068213 0.02352,-0.028946 0.04175,-0.065619 0.05478,-0.1090372 0.01303,-0.04378 0.01964,-0.095948 0.01964,-0.1570964 0,-0.077792 -0.01054,-0.1411684 -0.03152,-0.1896526 -0.02099,-0.048847 -0.04945,-0.086242 -0.08527,-0.112655 -0.03546,-0.026775 -0.0757,-0.045008 -0.120923,-0.054777 -0.04487,-0.010131 -0.09141,-0.015503 -0.139526,-0.015503 z m 0.961182,0.097669 c 0.02858,0 0.04997,0.00899 0.06408,0.026355 0.01447,0.017367 0.0217,0.039371 0.0217,0.066146 0,0.020986 -0.0044,0.040148 -0.01343,0.057878 -0.009,0.017367 -0.02604,0.035135 -0.05064,0.053227 -0.02497,-0.00941 -0.04521,-0.018963 -0.06149,-0.029455 -0.01628,-0.010493 -0.02873,-0.022786 -0.03669,-0.036174 -0.0076,-0.013387 -0.01137,-0.028779 -0.01137,-0.046509 0,-0.030031 0.0075,-0.052499 0.02274,-0.067696 0.01556,-0.015559 0.03725,-0.023771 0.06511,-0.023771 z m -0.782898,0.031523 h 0.03772 c 0.02352,0 0.04537,0.00331 0.06563,0.00982 0.02027,0.00651 0.03788,0.018806 0.05271,0.036174 0.0152,0.017367 0.02682,0.04154 0.03514,0.07338 0.0087,0.03184 0.01343,0.073368 0.01343,0.1240234 0,0.04957 -0.0044,0.090426 -0.0124,0.12299 -0.008,0.032564 -0.01927,0.058183 -0.03411,0.076998 -0.01483,0.018455 -0.0326,0.031831 -0.05323,0.039791 -0.02026,0.0076 -0.04257,0.011369 -0.06718,0.011369 h -0.03772 z m 0.746208,0.2816363 c 0.03401,0.011941 0.06118,0.024077 0.08216,0.035657 0.02099,0.011216 0.03674,0.024233 0.04651,0.039791 0.01013,0.015557 0.01499,0.036012 0.01499,0.060978 0,0.027137 -0.0083,0.051052 -0.02532,0.071313 -0.01701,0.019899 -0.04438,0.029456 -0.08165,0.029456 -0.03618,0 -0.0632,-0.0094 -0.08165,-0.028939 -0.01809,-0.019899 -0.02739,-0.045365 -0.02739,-0.076481 0,-0.019899 0.003,-0.037978 0.0088,-0.05426 0.0062,-0.016282 0.01447,-0.030744 0.02532,-0.043408 0.01085,-0.013025 0.02377,-0.024699 0.03824,-0.034106 z"
         inkscape:label="D8" />
      <path
         id="path99490"
         style="font-weight:bold;font-size:1.05833px;line-height:1.25;font-family:'Fira Code';-inkscape-font-specification:'Fira Code Bold';font-variant-ligatures:none;letter-spacing:0.0396875px;fill:#000000;stroke-width:0.264583"
         d="m 15.903939,2.4091553 v 0.7524089 h 0.202571 c 0.03763,0 0.07461,-0.00346 0.110071,-0.010335 0.03546,-0.00687 0.06847,-0.018497 0.09922,-0.03514 0.03076,-0.016642 0.05746,-0.039784 0.08062,-0.06873 0.02352,-0.028946 0.04175,-0.065102 0.05478,-0.1085204 0.01303,-0.043781 0.01964,-0.095948 0.01964,-0.1570964 0,-0.077792 -0.01053,-0.1411685 -0.03152,-0.1896525 -0.02099,-0.048846 -0.04945,-0.086242 -0.08527,-0.1126554 -0.03546,-0.026775 -0.0757,-0.045524 -0.120922,-0.055294 -0.04487,-0.010131 -0.09141,-0.014986 -0.139527,-0.014986 z m 0.707967,0 v 0.129191 h 0.330729 l -0.280603,0.5901449 0.162781,0.050126 0.291455,-0.6531901 V 2.4091553 Z m -0.5302,0.129191 h 0.03824 c 0.02352,0 0.04537,0.00331 0.06563,0.00982 0.02027,0.00651 0.03788,0.018289 0.05271,0.035657 0.0152,0.017368 0.02682,0.042057 0.03514,0.073897 0.0087,0.03184 0.01292,0.073368 0.01292,0.1240234 0,0.04957 -0.0039,0.090426 -0.01188,0.12299 -0.008,0.032564 -0.01927,0.058183 -0.03411,0.076998 -0.01483,0.018452 -0.0326,0.031831 -0.05323,0.039791 -0.02026,0.0076 -0.04257,0.011369 -0.06718,0.011369 h -0.03824 z"
         inkscape:label="D7" />
      <path
         id="path99485"
         style="font-weight:bold;font-size:1.05833px;line-height:1.25;font-family:'Fira Code';-inkscape-font-specification:'Fira Code Bold';font-variant-ligatures:none;letter-spacing:0.0396875px;fill:#000000;stroke-width:0.264583"
         d="m 19.434472,2.3993367 c -0.06233,0.00214 -0.11647,0.020517 -0.162264,0.054777 -0.04848,0.036544 -0.08572,0.087163 -0.112137,0.1519288 -0.02605,0.064766 -0.03927,0.1396094 -0.03927,0.2242758 0,0.048484 0.0055,0.09404 0.01602,0.1374592 0.01049,0.043056 0.02666,0.081434 0.04909,0.1147217 0.02243,0.032926 0.05136,0.058855 0.08682,0.078031 0.03546,0.018814 0.07822,0.028422 0.128158,0.028422 0.05463,0 0.101793,-0.012602 0.141593,-0.037207 0.04017,-0.024604 0.07131,-0.057454 0.09302,-0.098702 0.02171,-0.041609 0.03256,-0.087683 0.03256,-0.1379759 0,-0.053188 -0.0096,-0.097969 -0.02842,-0.1348756 -0.01882,-0.037267 -0.04413,-0.065573 -0.07597,-0.084749 -0.03184,-0.01954 -0.06738,-0.029456 -0.106453,-0.029456 -0.02967,0 -0.05952,0.00677 -0.08992,0.020153 -0.02469,0.010877 -0.04754,0.027389 -0.0677,0.048059 0.0024,-0.040172 0.0084,-0.075085 0.01912,-0.1043863 0.01339,-0.035459 0.03131,-0.062163 0.05374,-0.080615 0.02279,-0.018452 0.04908,-0.027905 0.07803,-0.027905 0.01592,0 0.03178,0.00268 0.04806,0.00775 0.01665,0.0047 0.03204,0.012245 0.04651,0.022737 l 0.06511,-0.1043858 c -0.02099,-0.014835 -0.04485,-0.026456 -0.07235,-0.03514 -0.02714,-0.00868 -0.05766,-0.012919 -0.09095,-0.012919 -0.0042,0 -0.0082,-1.427e-4 -0.0124,0 z m -1.002522,0.018603 v 0.7524087 h 0.203088 c 0.03763,0 0.07409,-0.00346 0.109554,-0.010335 0.03546,-0.00687 0.06846,-0.018497 0.09922,-0.03514 0.03075,-0.016642 0.05797,-0.039267 0.08113,-0.068213 0.02352,-0.028946 0.04175,-0.065619 0.05478,-0.1090372 0.01302,-0.04378 0.01964,-0.095948 0.01964,-0.1570964 0,-0.077792 -0.01054,-0.1411684 -0.03152,-0.1896526 -0.02099,-0.048847 -0.04945,-0.086242 -0.08527,-0.112655 -0.03546,-0.026775 -0.0757,-0.045008 -0.120923,-0.054777 -0.04487,-0.010131 -0.09141,-0.015503 -0.139526,-0.015503 z m 0.178283,0.1291911 h 0.03772 c 0.02352,0 0.04537,0.00331 0.06563,0.00982 0.02026,0.00651 0.03788,0.018806 0.05271,0.036174 0.0152,0.017367 0.02682,0.04154 0.03514,0.07338 0.0087,0.03184 0.01344,0.073368 0.01344,0.1240234 0,0.04957 -0.0039,0.090426 -0.01188,0.12299 -0.008,0.032564 -0.01979,0.058183 -0.03462,0.076998 -0.01483,0.018455 -0.0326,0.031831 -0.05323,0.039791 -0.02026,0.0076 -0.04257,0.011369 -0.06718,0.011369 h -0.03772 z m 0.798401,0.2371951 c 0.0014,-4.95e-5 0.0027,0 0.0041,0 0.01773,-3e-7 0.03266,0.00506 0.04496,0.01447 0.01228,0.00905 0.02189,0.023818 0.02842,0.044442 0.0069,0.020262 0.01034,0.047275 0.01034,0.081649 0,0.039077 -0.0075,0.072754 -0.02274,0.1002522 -0.01484,0.027499 -0.0386,0.040824 -0.0708,0.040824 -0.04053,0 -0.06769,-0.020558 -0.08216,-0.062529 -0.01279,-0.037074 -0.01998,-0.091076 -0.02119,-0.1617472 0.01373,-0.015875 0.02907,-0.028532 0.04599,-0.038241 0.02069,-0.011872 0.04172,-0.018378 0.06304,-0.019119 z"
         inkscape:label="D6" />
      <path
         id="path99480"
         style="font-weight:bold;font-size:1.05833px;line-height:1.25;font-family:'Fira Code';-inkscape-font-specification:'Fira Code Bold';font-variant-ligatures:none;letter-spacing:0.0396875px;fill:#000000;stroke-width:0.264583"
         d="m 20.979081,2.4086385 v 0.7524089 h 0.203088 c 0.03763,0 0.07409,-0.00346 0.109554,-0.010335 0.03546,-0.00687 0.06847,-0.019013 0.09922,-0.035657 0.03075,-0.016642 0.05797,-0.039267 0.08113,-0.068213 0.02352,-0.028946 0.04175,-0.065102 0.05478,-0.1085204 0.01303,-0.04378 0.01964,-0.095948 0.01964,-0.1570964 0,-0.077792 -0.01054,-0.1411686 -0.03152,-0.1896526 -0.02099,-0.048847 -0.04945,-0.086243 -0.08527,-0.1126554 -0.03546,-0.026775 -0.0757,-0.045524 -0.120924,-0.055294 -0.04487,-0.010131 -0.09141,-0.014986 -0.139526,-0.014986 z m 0.735355,0 v 0.4041096 h 0.115756 c 0.01664,-0.00941 0.0325,-0.015499 0.04806,-0.019119 0.01556,-0.00362 0.0307,-0.00569 0.04444,-0.00569 0.02027,0 0.03752,0.00424 0.05271,0.01292 0.0152,0.00832 0.02734,0.022011 0.03566,0.040824 0.0087,0.018815 0.01292,0.043814 0.01292,0.074931 0,0.039077 -0.01193,0.070842 -0.03617,0.095084 -0.02388,0.024241 -0.0558,0.036173 -0.0956,0.036173 -0.02605,0 -0.05105,-0.00563 -0.07493,-0.017571 -0.02351,-0.012303 -0.04443,-0.03007 -0.06253,-0.053227 l -0.0987,0.089917 c 0.02786,0.034011 0.06293,0.061542 0.104903,0.082165 0.04197,0.020262 0.09006,0.029972 0.144694,0.029972 0.05898,0 0.110372,-0.011311 0.154512,-0.034106 0.04414,-0.023156 0.07875,-0.054923 0.103353,-0.095085 0.02497,-0.040162 0.03721,-0.085254 0.03721,-0.1359091 0,-0.050655 -0.0092,-0.094197 -0.02842,-0.1307415 -0.01882,-0.036544 -0.04428,-0.064694 -0.07648,-0.084232 -0.03184,-0.01954 -0.06722,-0.029456 -0.105937,-0.029456 -0.01664,0 -0.03472,0.00206 -0.05426,0.00568 -0.01954,0.00362 -0.03891,0.0094 -0.05736,0.018087 V 2.5311116 h 0.275436 l 0.01912,-0.1224731 z m -0.557071,0.1291911 h 0.03772 c 0.02352,0 0.04537,0.00331 0.06563,0.00982 0.02026,0.00651 0.03788,0.018289 0.05271,0.035657 0.0152,0.017367 0.02682,0.042057 0.03514,0.073898 0.0087,0.03184 0.01292,0.073368 0.01292,0.1240234 h 5.29e-4 c 0,0.049569 -0.0044,0.090426 -0.0124,0.1229897 -0.008,0.032564 -0.01927,0.058183 -0.03411,0.076998 -0.01483,0.018452 -0.0326,0.031831 -0.05323,0.039791 -0.02026,0.0076 -0.04257,0.011369 -0.06718,0.011369 h -0.03772 z"
         inkscape:label="D5" />
      <path
         id="text104417"
         style="font-weight:bold;font-size:1.05833px;line-height:1.25;font-family:'Fira Code';-inkscape-font-specification:'Fira Code Bold';font-variant-ligatures:none;letter-spacing:0.0396875px;fill:#000000;stroke-width:0.999999"
         inkscape:label="D4"
         d="m 92.626953,9.1035156 -1.181641,1.8867184 v 0.429688 h 1.177735 l 0.0039,0.597656 H 93.25 v -0.597656 h 0.285156 V 10.933594 H 93.25 V 9.1035156 Z m -3.761719,0.070312 v 2.8437504 h 0.767578 c 0.142222,0 0.280046,-0.01308 0.414063,-0.03906 0.134017,-0.02598 0.258761,-0.06991 0.375,-0.132813 0.116239,-0.06291 0.21912,-0.150366 0.306641,-0.259765 0.08889,-0.109402 0.1578,-0.246055 0.207031,-0.410157 0.04923,-0.165469 0.07422,-0.362639 0.07422,-0.59375 0,-0.294016 -0.03982,-0.533549 -0.119141,-0.7167971 C 90.811308,9.6806181 90.703744,9.5392819 90.568359,9.4394531 90.434343,9.3382569 90.282268,9.2693448 90.111328,9.2324219 89.941756,9.1941314 89.765864,9.1738281 89.583984,9.1738281 Z m 0.673828,0.4882813 h 0.142579 c 0.08889,0 0.171466,0.012494 0.248047,0.037109 0.07658,0.024615 0.14315,0.069125 0.199218,0.1347656 0.05744,0.065641 0.10136,0.1589557 0.132813,0.2792965 0.03282,0.120342 0.05078,0.277298 0.05078,0.46875 0,0.18735 -0.0168,0.341767 -0.04687,0.464844 -0.03008,0.123077 -0.07284,0.219905 -0.128906,0.291016 -0.05607,0.06974 -0.123224,0.120305 -0.201172,0.15039 -0.07658,0.02872 -0.160915,0.04297 -0.253906,0.04297 h -0.142579 z m 3.087891,0.4453121 v 0.826172 h -0.511719 z"
         transform="scale(0.26458333)" />
      <path
         id="path99470"
         style="font-weight:bold;font-size:1.05833px;line-height:1.25;font-family:'Fira Code';-inkscape-font-specification:'Fira Code Bold';font-variant-ligatures:none;letter-spacing:0.0396875px;fill:#000000;stroke-width:0.264583"
         d="m 26.975615,2.3993367 c -0.04429,0.0019 -0.08512,0.010642 -0.122473,0.025838 -0.0427,0.017006 -0.08138,0.04216 -0.115756,0.075448 l 0.08837,0.091467 c 0.02135,-0.020262 0.04397,-0.036481 0.06821,-0.048059 0.02461,-0.011579 0.05162,-0.01757 0.08165,-0.01757 0.0322,0 0.0588,0.00852 0.07906,0.024805 0.02027,0.016282 0.03049,0.038441 0.03049,0.066663 0,0.021709 -0.0052,0.039942 -0.01497,0.054777 -0.0098,0.014473 -0.02331,0.025321 -0.04031,0.032556 -0.01701,0.00724 -0.03632,0.010853 -0.0584,0.010853 h -0.04857 l -0.01963,0.1183391 h 0.06821 c 0.02714,0 0.04992,0.00377 0.06873,0.011369 0.01918,0.0076 0.03364,0.019529 0.04341,0.036173 0.01013,0.016282 0.01551,0.037821 0.01551,0.064596 -3e-6,0.03582 -0.01161,0.063505 -0.03514,0.082682 -0.02352,0.018814 -0.0542,0.028422 -0.09147,0.028422 -0.02967,0 -0.05798,-0.00584 -0.08475,-0.017052 -0.02641,-0.011578 -0.05013,-0.029811 -0.07183,-0.054777 l -0.09665,0.089915 c 0.03148,0.035821 0.06918,0.063816 0.113689,0.083716 0.04451,0.019539 0.09481,0.029456 0.150895,0.029456 0.06042,0 0.112641,-0.010382 0.156062,-0.031006 0.04341,-0.020987 0.07657,-0.048981 0.09973,-0.083716 0.02352,-0.034735 0.03514,-0.073422 0.03514,-0.1157552 0,-0.040524 -0.0075,-0.073529 -0.02273,-0.099219 -0.01521,-0.025688 -0.03627,-0.045162 -0.06304,-0.058911 -0.02641,-0.014108 -0.05673,-0.023715 -0.09147,-0.028422 0.03112,-0.00905 0.05782,-0.021286 0.08061,-0.037207 0.02315,-0.01592 0.04108,-0.035909 0.05375,-0.059428 0.01267,-0.023881 0.01913,-0.051358 0.01913,-0.083199 0,-0.035097 -0.01024,-0.067172 -0.03049,-0.096118 -0.0199,-0.029308 -0.04898,-0.052913 -0.08733,-0.07028 -0.03799,-0.017729 -0.08422,-0.026355 -0.138493,-0.026355 -0.0065,0 -0.01278,-2.725e-4 -0.01913,0 z m -0.91054,0.018603 v 0.7524087 h 0.203089 c 0.03763,0 0.07409,-0.00346 0.109554,-0.010335 0.03546,-0.00687 0.06846,-0.018497 0.09922,-0.03514 0.03076,-0.016642 0.05797,-0.039267 0.08113,-0.068213 0.02352,-0.028946 0.04175,-0.065619 0.05478,-0.1090372 0.01302,-0.04378 0.01963,-0.095948 0.01963,-0.1570964 0,-0.077792 -0.01053,-0.1411684 -0.03152,-0.1896526 -0.02098,-0.048846 -0.04945,-0.086242 -0.08527,-0.1126546 -0.03545,-0.026775 -0.07569,-0.045008 -0.120918,-0.054778 -0.04487,-0.010131 -0.09141,-0.015503 -0.139526,-0.015503 z m 0.178284,0.1291912 h 0.03772 c 0.02352,0 0.04537,0.00331 0.06563,0.00982 0.02027,0.00651 0.03788,0.018806 0.05271,0.036173 0.0152,0.017367 0.02682,0.04154 0.03514,0.073381 0.0087,0.03184 0.01292,0.073368 0.01292,0.1240234 0,0.049569 -0.0039,0.090426 -0.01188,0.12299 -0.008,0.032564 -0.01927,0.058183 -0.03411,0.076998 -0.01483,0.018455 -0.0326,0.031831 -0.05323,0.039791 -0.02026,0.0076 -0.04257,0.011369 -0.06718,0.011369 h -0.03772 z"
         inkscape:label="D3" />
      <path
         id="path99465"
         style="font-weight:bold;font-size:1.05833px;line-height:1.25;font-family:'Fira Code';-inkscape-font-specification:'Fira Code Bold';font-variant-ligatures:none;letter-spacing:0.0396875px;fill:#000000;stroke-width:0.264583"
         d="m 29.527396,2.4086385 c -0.05552,0.00138 -0.102407,0.013091 -0.141075,0.03514 -0.04125,0.023157 -0.07617,0.053941 -0.104386,0.093018 l 0.105417,0.079582 c 0.01953,-0.026775 0.03948,-0.046454 0.06046,-0.058394 0.02098,-0.01194 0.04583,-0.01757 0.07441,-0.01757 0.03221,0 0.05705,0.00863 0.07441,0.026355 0.01773,0.017729 0.02687,0.041954 0.02687,0.072347 0,0.01773 -0.0035,0.036117 -0.01035,0.055294 -0.0069,0.018814 -0.01802,0.039579 -0.03359,0.062012 -0.01521,0.022434 -0.03565,0.047897 -0.06098,0.076481 -0.02495,0.028584 -0.05595,0.061279 -0.0925,0.098185 -0.03655,0.036906 -0.07963,0.079363 -0.129191,0.1271241 v 0.1214395 h 0.500226 l 0.0181,-0.1307412 h -0.32091 c 0.05717,-0.051017 0.104947,-0.096471 0.14366,-0.135909 0.03907,-0.039439 0.07053,-0.075285 0.09405,-0.107487 0.02352,-0.032564 0.03999,-0.063038 0.05012,-0.091984 0.0105,-0.029307 0.01603,-0.059524 0.01603,-0.089917 0,-0.038353 -0.0099,-0.073373 -0.02946,-0.1059367 -0.01918,-0.032926 -0.0481,-0.059682 -0.08682,-0.079582 -0.03835,-0.0199 -0.08598,-0.029456 -0.143142,-0.029456 -0.0038,0 -0.0077,-9.18e-5 -0.01138,0 z m -0.92294,0.018603 v 0.7524089 h 0.203089 c 0.03763,0 0.07409,-0.00346 0.109553,-0.010335 0.03546,-0.00687 0.06847,-0.018497 0.09922,-0.03514 0.03076,-0.016642 0.05798,-0.039784 0.08113,-0.068729 0.02352,-0.028946 0.04175,-0.065102 0.05478,-0.1085207 0.01302,-0.04378 0.01963,-0.095948 0.01963,-0.1570964 0,-0.077792 -0.01053,-0.1411684 -0.03152,-0.1896525 -0.02098,-0.048846 -0.04944,-0.086241 -0.08527,-0.1126547 -0.03546,-0.026775 -0.07569,-0.045008 -0.120923,-0.054777 -0.04487,-0.010131 -0.09141,-0.015503 -0.139525,-0.015503 z m 0.178284,0.129191 h 0.03772 c 0.02352,0 0.04537,0.00331 0.06563,0.00982 0.02027,0.00651 0.03788,0.018289 0.05271,0.035657 0.01521,0.017368 0.02682,0.042057 0.03514,0.073897 0.0087,0.03184 0.01344,0.073368 0.01344,0.1240234 0,0.04957 -0.0039,0.090426 -0.01188,0.12299 -0.008,0.032564 -0.01979,0.058183 -0.03462,0.076998 -0.01484,0.018452 -0.0326,0.031831 -0.05323,0.039791 -0.02027,0.0076 -0.04257,0.011369 -0.06718,0.011369 h -0.03772 z"
         inkscape:label="D2" />
      <path
         id="rect2279"
         style="font-weight:bold;font-size:1.05833px;line-height:1.25;font-family:'Fira Code';-inkscape-font-specification:'Fira Code Bold';font-variant-ligatures:none;font-variation-settings:'wght' 700;letter-spacing:0.0396875px;opacity:1;fill:#000000;stroke-width:0"
         d="m 30.479793,0 v 3.302124 h 2.540413 V 0 Z M 31.75,0.38085529 A 0.88899996,0.88899996 0 0 1 32.638836,1.2702067 0.88899996,0.88899996 0 0 1 31.75,2.1590413 0.88899996,0.88899996 0 0 1 30.861164,1.2702067 0.88899996,0.88899996 0 0 1 31.75,0.38085529 Z M 31.090608,2.3993367 c 0.006,-2.646e-4 0.01249,0 0.0186,0 0.055,0 0.100867,0.00832 0.138493,0.025321 0.03763,0.017005 0.07146,0.039319 0.10077,0.067179 l -0.09353,0.096635 c -0.02281,-0.020262 -0.04465,-0.035189 -0.06563,-0.044958 -0.02098,-0.00977 -0.04506,-0.014469 -0.07183,-0.014469 -0.02532,0 -0.04841,0.00485 -0.06977,0.014986 -0.02098,0.00977 -0.03936,0.025161 -0.05529,0.046509 -0.01556,0.020985 -0.02801,0.048516 -0.03669,0.082165 -0.0087,0.033288 -0.01291,0.073525 -0.01291,0.120923 0,0.06549 0.0055,0.1178648 0.01603,0.1565796 0.01085,0.038715 0.02685,0.066194 0.04857,0.083199 0.0217,0.016642 0.04939,0.025321 0.08268,0.025321 0.01773,0 0.03405,-0.00222 0.04961,-0.0062 0.01556,-0.00434 0.03002,-0.00966 0.04341,-0.016536 V 2.8639068 2.8034453 h 0.168466 v 0.3095419 c -0.03763,0.023156 -0.07802,0.041543 -0.121439,0.055294 -0.04306,0.013753 -0.09022,0.020672 -0.141594,0.020672 -0.07128,0 -0.131506,-0.014928 -0.180351,-0.044959 -0.04885,-0.030393 -0.08578,-0.075227 -0.111104,-0.1338418 -0.02498,-0.058977 -0.03772,-0.131445 -0.03772,-0.2175576 0,-0.064043 0.0092,-0.1206529 0.02687,-0.1694989 0.0181,-0.049208 0.0431,-0.090064 0.07493,-0.1229899 0.03184,-0.033288 0.06877,-0.058442 0.111107,-0.075448 0.03704,-0.01488 0.07631,-0.023461 0.118337,-0.025322 z m 0.391707,0.018603 h 0.222208 l 0.192238,0.6020302 c -0.004,-0.022794 -0.0086,-0.049653 -0.01291,-0.081132 -0.004,-0.031841 -0.0075,-0.067377 -0.01035,-0.1064532 -0.0028,-0.039077 -0.0041,-0.081225 -0.0041,-0.1260904 V 2.4179402 H 32.02079 V 3.1703491 H 31.804782 L 31.60686,2.5652181 c 0.0026,0.016282 0.0049,0.036271 0.0078,0.059428 0.0033,0.022794 0.0065,0.048259 0.0093,0.076481 0.0029,0.027861 0.0054,0.057406 0.0072,0.088884 0.0019,0.031478 0.0026,0.063709 0.0026,0.096635 v 0.2837037 h -0.151414 z m 0.690915,0 h 0.190169 c 0.04812,0 0.09466,0.00537 0.139525,0.015503 0.04523,0.00977 0.08546,0.028002 0.120923,0.054777 0.03582,0.026413 0.06429,0.063808 0.08527,0.1126546 0.02098,0.048485 0.03152,0.1118606 0.03152,0.1896526 0,0.061148 -0.0066,0.113316 -0.01963,0.1570964 -0.01302,0.043419 -0.03126,0.080091 -0.05478,0.1090371 -0.02315,0.028946 -0.05037,0.051571 -0.08113,0.068213 -0.03075,0.016642 -0.06376,0.028266 -0.09922,0.03514 -0.03546,0.00687 -0.07193,0.010335 -0.109553,0.010335 h -0.203089 z m 0.178284,0.1291911 v 0.4945434 h 0.03772 c 0.02461,0 0.04743,-0.00377 0.0677,-0.011369 0.02061,-0.00796 0.03786,-0.021336 0.05271,-0.039791 0.01484,-0.018815 0.02666,-0.044434 0.03462,-0.076998 0.008,-0.032564 0.01188,-0.07342 0.01188,-0.12299 -2e-6,-0.050655 -0.0042,-0.092183 -0.01291,-0.1240235 -0.0083,-0.03184 -0.02045,-0.056013 -0.03566,-0.07338 -0.01484,-0.017368 -0.03244,-0.029661 -0.05271,-0.036173 -0.02027,-0.00651 -0.0421,-0.00982 -0.06563,-0.00982 z"
         inkscape:label="GND" />
      <path
         id="path99451"
         style="font-weight:bold;font-size:1.05833px;line-height:1.25;font-family:'Fira Code';-inkscape-font-specification:'Fira Code Bold';font-variant-ligatures:none;letter-spacing:0.0396875px;fill:#000000;stroke-width:0.264583"
         d="m 34.257339,2.3993367 c -0.04432,0.0019 -0.08531,0.010642 -0.122989,0.025838 -0.04306,0.017006 -0.07715,0.04185 -0.102835,0.074414 -0.02532,0.032564 -0.03824,0.071871 -0.03824,0.1178223 0,0.037991 0.0079,0.071152 0.02376,0.099735 0.01627,0.028584 0.04257,0.053738 0.07803,0.075448 0.03582,0.021709 0.08298,0.041853 0.141595,0.059945 0.03509,0.010493 0.06211,0.02036 0.08165,0.030489 0.0199,0.010131 0.03406,0.02196 0.04238,0.034623 0.0083,0.012663 0.01241,0.028056 0.01241,0.046509 0,0.01954 -0.005,0.036377 -0.0155,0.050126 -0.0105,0.013748 -0.02511,0.024286 -0.04393,0.031523 -0.01881,0.00724 -0.04066,0.010851 -0.06563,0.010851 -0.04017,0 -0.07694,-0.00661 -0.110588,-0.019637 -0.03365,-0.013388 -0.06464,-0.032602 -0.0925,-0.056844 l -0.08992,0.1002522 c 0.03148,0.030755 0.0711,0.056529 0.118857,0.077515 0.04812,0.020624 0.107368,0.031006 0.178284,0.031006 0.06405,0 0.118745,-0.010226 0.16433,-0.030489 0.04559,-0.020262 0.08066,-0.048412 0.104905,-0.084232 0.02461,-0.03582 0.03721,-0.076832 0.03721,-0.1235067 0,-0.046313 -0.0093,-0.084845 -0.02739,-0.1152385 -0.01773,-0.030394 -0.0435,-0.055548 -0.07751,-0.075448 C 34.420068,2.739776 34.379678,2.722317 34.33228,2.707845 34.29248,2.695182 34.26118,2.684181 34.23874,2.674772 34.2163,2.665002 34.20076,2.654621 34.19172,2.643766 34.18272,2.632912 34.17778,2.619895 34.17778,2.603975 c 0,-0.016282 0.0051,-0.02997 0.01447,-0.040824 0.0094,-0.010855 0.02228,-0.018861 0.03927,-0.024288 0.01701,-0.00579 0.03699,-0.00878 0.05943,-0.00878 0.03039,0 0.06009,0.00501 0.0894,0.015503 0.02931,0.010131 0.05684,0.026195 0.08216,0.047542 L 34.54623,2.496493 C 34.51367,2.465376 34.4755,2.441307 34.430991,2.424663 34.386491,2.407658 34.334731,2.399342 34.27648,2.399342 c -0.0065,0 -0.01278,-2.725e-4 -0.01913,0 z m -0.94361,0.018603 v 0.7524087 h 0.178282 V 2.882511 h 0.05013 l 0.16278,0.2878378 h 0.201538 L 33.70957,2.8530555 c 0.02823,-0.011216 0.05369,-0.02599 0.07648,-0.044442 0.02278,-0.018452 0.04088,-0.041438 0.05426,-0.068213 0.01339,-0.026775 0.02016,-0.057714 0.02016,-0.093534 0,-0.077791 -0.02593,-0.1353311 -0.07803,-0.1725991 -0.0521,-0.037268 -0.129632,-0.056327 -0.232026,-0.056327 z m 1.343586,0 v 0.1364258 h 0.210841 v 0.6159829 h 0.178282 V 2.554366 h 0.201538 l 0.0181,-0.1364258 z m -1.165304,0.125057 h 0.05891 c 0.04161,0 0.07306,0.00816 0.09405,0.024805 0.02135,0.016282 0.03204,0.042883 0.03204,0.079065 0,0.0398 -0.01024,0.068725 -0.03049,0.086816 -0.02027,0.018092 -0.04965,0.026872 -0.08837,0.026872 h -0.06615 z"
         inkscape:label="RST" />
      <g
         id="g140937"
         inkscape:label="RX0"
         style="fill:#000000">
        <path
           id="path140176-8"
           style="display:inline;fill:#000000;stroke:#000000;stroke-width:0;stroke-linecap:butt;stroke-linejoin:miter;stroke-miterlimit:4;stroke-dasharray:none;stroke-opacity:1"
           inkscape:label="Arrow"
           d="m 37.477247,2.8012634 h -0.24288 l -0.315743,0.341064 v -0.743106 h -0.177766 v 0.743106 l -0.315744,-0.341064 h -0.242362 l 0.526066,0.567923 0.12144,0.130741 0.120923,-0.130225 z" />
        <path
           id="path99444"
           style="font-weight:bold;font-size:1.05833px;line-height:1.25;font-family:'Fira Code';-inkscape-font-specification:'Fira Code Bold';font-variant-ligatures:none;letter-spacing:0.0396875px;fill:#000000;stroke-width:0.264583"
           d="m 37.507788,3.6690268 c -0.08627,0.00209 -0.151175,0.037087 -0.195337,0.1043863 -0.04523,0.069108 -0.06822,0.1656448 -0.06822,0.289388 3e-6,0.1241049 0.02299,0.2212615 0.06822,0.291455 0.04559,0.069832 0.113665,0.1043863 0.204121,0.1043863 0.08974,3e-7 0.156985,-0.034555 0.202573,-0.1043863 0.04595,-0.070193 0.06925,-0.1673501 0.06925,-0.291455 0,-0.1237432 -0.02328,-0.2202799 -0.06925,-0.289388 -0.04559,-0.06947 -0.112839,-0.1043863 -0.202573,-0.1043863 -0.0028,0 -0.006,-6.8e-5 -0.0088,0 z m -1.636078,0.019119 v 0.7524088 h 0.178285 v -0.287838 h 0.05013 l 0.162779,0.2878378 h 0.201539 L 36.267554,4.1227443 c 0.02823,-0.011216 0.05369,-0.02599 0.07648,-0.044442 0.02281,-0.018452 0.04087,-0.040921 0.05426,-0.067696 0.01339,-0.026774 0.02016,-0.05823 0.02016,-0.094051 0,-0.077792 -0.02646,-0.1353317 -0.07855,-0.1725991 -0.0521,-0.037268 -0.129116,-0.055811 -0.23151,-0.055811 z m 0.648542,0 0.196887,0.3529502 -0.213424,0.3994586 h 0.188619 l 0.130741,-0.2873208 0.133324,0.2873208 h 0.191204 L 36.929528,4.0333443 37.129516,3.6881456 h -0.188103 l -0.116271,0.2413288 -0.11317,-0.2413288 z m 0.989086,0.10542 c 0.0024,-1.611e-4 0.0048,0 0.0072,0 0.02858,0 0.05058,0.00707 0.06614,0.021188 0.0047,0.00412 0.0085,0.00928 0.01241,0.015502 l -0.182935,0.3829225 c -5.29e-4,-0.00387 -0.0011,-0.0078 -0.0016,-0.011885 -0.0033,-0.035821 -0.0052,-0.082049 -0.0052,-0.1384927 0,-0.09733 0.0092,-0.1668534 0.02687,-0.2077395 0.01662,-0.03867 0.04225,-0.059078 0.077,-0.061495 z m -1.459343,0.019637 h 0.05891 c 0.04161,0 0.07306,0.00816 0.09405,0.024805 0.02135,0.016282 0.03204,0.042366 0.03204,0.078548 0,0.0398 -0.01024,0.068725 -0.03049,0.086816 -0.02027,0.018092 -0.04966,0.027389 -0.08837,0.027389 h -0.06614 z m 1.573032,0.145211 c 0.0019,0.029684 0.0031,0.064405 0.0031,0.1043863 0,0.066937 -0.0038,0.1205516 -0.01138,0.1607138 -0.0076,0.0398 -0.0199,0.068415 -0.03617,0.085783 -0.01593,0.017367 -0.03632,0.025839 -0.06201,0.025839 -0.0217,0 -0.03979,-0.00361 -0.05426,-0.010853 -0.0044,-0.00238 -0.0085,-0.00524 -0.01241,-0.00878 z"
           inkscape:label="RX0" />
      </g>
      <g
         id="g140933"
         inkscape:label="TX1"
         style="fill:#000000">
        <path
           id="path140176-0-6"
           style="display:inline;fill:#000000;stroke:#000000;stroke-width:0;stroke-linecap:butt;stroke-linejoin:miter;stroke-miterlimit:4;stroke-dasharray:none;stroke-opacity:1"
           inkscape:label="Arrow"
           d="m 40.017248,3.0978856 h -0.242879 l -0.315743,-0.341064 v 0.743106 h -0.177767 v -0.743106 l -0.315743,0.341064 h -0.242363 l 0.526066,-0.567923 0.12144,-0.130741 0.120923,0.130225 z" />
        <path
           id="path99437"
           style="font-weight:bold;font-size:1.05833px;line-height:1.25;font-family:'Fira Code';-inkscape-font-specification:'Fira Code Bold';font-variant-ligatures:none;letter-spacing:0.0396875px;fill:#000000;stroke-width:0.264583"
           d="m 38.391973,3.6876302 v 0.1364257 h 0.211354 V 4.440039 h 0.177768 V 3.8240559 h 0.201539 l 0.0186,-0.1364257 z m 0.687294,0 0.196887,0.3529499 -0.213423,0.3994589 h 0.188619 l 0.130741,-0.2868041 0.133326,0.2868041 h 0.191204 L 39.488546,4.0328289 39.688534,3.6876302 H 39.500431 L 39.38416,3.9294757 39.270987,3.6876302 Z m 0.976167,0 -0.242877,0.1477946 0.07286,0.1178222 0.154511,-0.096635 V 4.3103313 H 39.858547 V 4.440039 h 0.489376 V 4.3103313 h -0.14056 V 3.6876302 Z"
           inkscape:label="TX1" />
      </g>
    </g>
    <g
       id="g134538"
       inkscape:label="LED"
       style="fill:#000000">
      <g
         id="g138954"
         inkscape:label="TX"
         style="fill:#000000">
        <path
           id="path140176-0"
           style="display:inline;fill:#000000;stroke:#000000;stroke-width:0;stroke-linecap:butt;stroke-linejoin:miter;stroke-miterlimit:4;stroke-dasharray:none;stroke-opacity:1"
           inkscape:label="Arrow"
           d="M 31.855958,3.6707524 V 3.9136317 L 31.514894,4.2293746 H 32.258 v 0.1777669 h -0.743106 l 0.341064,0.3157432 V 4.965247 L 31.288035,4.4391809 31.157294,4.3177414 31.287519,4.1968184 Z" />
        <path
           id="text122260"
           style="font-weight:bold;font-size:1.05833px;line-height:1.25;font-family:'Fira Code';-inkscape-font-specification:'Fira Code Bold';font-variant-ligatures:none;letter-spacing:0.0396875px;writing-mode:tb-rl;fill:#000000;stroke-width:0.264583"
           inkscape:label="TX"
           d="m 33.00578,3.6606761 v 0.2113565 h -0.615985 v 0.177767 h 0.615985 v 0.2015381 l 0.136424,0.018603 V 3.6606755 Z m -0.615985,0.67076 v 0.188619 l 0.287322,0.1307413 -0.287322,0.1328086 v 0.1917195 l 0.407212,-0.2180746 0.345197,0.1999879 V 4.7691355 L 32.900359,4.6528635 33.142204,4.5396923 V 4.3479725 l -0.352949,0.1968873 z" />
      </g>
      <g
         id="g138958"
         inkscape:label="RX"
         style="fill:#000000">
        <path
           id="path140176"
           style="display:inline;opacity:1;fill:#000000;stroke:#000000;stroke-width:0;stroke-linecap:butt;stroke-linejoin:miter;stroke-miterlimit:4;stroke-dasharray:none;stroke-opacity:1"
           inkscape:label="Arrow"
           d="M 119.2793,25.394531 V 26.3125 l 1.28906,1.193359 h -2.80859 v 0.671875 h 2.80859 l -1.28906,1.19336 v 0.916015 l 2.14648,-1.988281 0.49414,-0.458984 -0.49219,-0.457032 z"
           transform="scale(0.26458333)" />
        <path
           id="text127834"
           style="font-weight:bold;font-size:1.05833px;line-height:1.25;font-family:'Fira Code';-inkscape-font-specification:'Fira Code Bold';font-variant-ligatures:none;letter-spacing:0.0396875px;writing-mode:tb-rl;fill:#000000;stroke-width:0.264583"
           inkscape:label="RX"
           d="m 32.389795,6.7280541 v 0.177767 h 0.287838 v 0.050643 L 32.389795,7.119245 v 0.2015379 l 0.31781,-0.1974037 c 0.01122,0.028222 0.02598,0.054203 0.04444,0.076998 0.01844,0.022794 0.04092,0.040873 0.0677,0.05426 0.02677,0.013388 0.05823,0.019637 0.09405,0.019637 0.07779,0 0.135332,-0.025929 0.172601,-0.078031 0.03727,-0.052102 0.05581,-0.1291145 0.05581,-0.2315104 V 6.7280541 Z m 0.409792,0.177767 h 0.217559 v 0.059428 c 0,0.04161 -0.0081,0.072549 -0.02479,0.093534 -0.01627,0.021347 -0.04237,0.032039 -0.07855,0.032039 -0.0398,0 -0.06872,-0.00971 -0.08682,-0.029973 -0.0181,-0.020262 -0.02739,-0.050168 -0.02739,-0.088883 z m -0.409792,0.4537191 v 0.1891356 l 0.287319,0.1307414 -0.287319,0.1328084 v 0.1917197 l 0.40721,-0.2180746 0.345199,0.199471 V 7.7977564 L 32.900356,7.6814844 33.142204,7.5683129 V 7.3765934 l -0.352952,0.196887 z" />
      </g>
      <path
         id="text129920"
         style="font-weight:bold;font-size:1.05833px;line-height:1.25;font-family:'Fira Code';-inkscape-font-specification:'Fira Code Bold';font-variant-ligatures:none;letter-spacing:0.0396875px;writing-mode:tb-rl;fill:#000000;stroke-width:0.264583"
         inkscape:label="ON"
         d="m 31.496515,9.7832943 c -0.08141,0 -0.151862,0.01183 -0.210838,0.034623 -0.05898,0.022794 -0.104225,0.05642 -0.136427,0.1012859 -0.03184,0.044866 -0.04806,0.099875 -0.04806,0.1653648 0,0.06585 0.01654,0.121377 0.04909,0.165881 0.03293,0.04487 0.079,0.07849 0.137975,0.101286 0.05934,0.02279 0.128657,0.03411 0.208256,0.03411 0.08141,0 0.151347,-0.01131 0.210323,-0.03411 0.05898,-0.02279 0.104587,-0.05642 0.136427,-0.101286 0.03184,-0.0445 0.04754,-0.100029 0.04754,-0.165881 0,-0.06549 -0.01617,-0.1204989 -0.04909,-0.1653648 -0.03257,-0.044866 -0.07848,-0.078491 -0.137459,-0.1012859 -0.05898,-0.022794 -0.128138,-0.034623 -0.207741,-0.034623 z m 0,0.1824178 c 0.09227,0 0.159568,0.00945 0.201539,0.027905 0.04233,0.018452 0.06305,0.048618 0.06305,0.090951 0,0.04233 -0.02056,0.07301 -0.06253,0.09147 -0.04197,0.01845 -0.109427,0.02739 -0.202055,0.02739 -0.09154,0 -0.158842,-0.0088 -0.201538,-0.02687 -0.04233,-0.01773 -0.06356,-0.04856 -0.06356,-0.09198 0,-0.04161 0.02109,-0.07162 0.06304,-0.090434 0.04197,-0.018814 0.109429,-0.028422 0.202054,-0.028422 z m -0.376721,0.5405359 v 0.151411 h 0.283705 c 0.03292,0 0.06516,-7.67e-4 0.09663,-0.0026 0.03148,-0.0018 0.06154,-0.0038 0.0894,-0.0067 0.02822,-0.0029 0.05369,-0.006 0.07648,-0.0093 0.02315,-0.0029 0.04263,-0.0057 0.05891,-0.0083 l -0.605131,0.197921 v 0.216007 h 0.752409 v -0.151412 h -0.288354 c -0.04487,0 -0.08701,0.0017 -0.12609,0.0047 -0.03908,0.0029 -0.0741,0.0064 -0.105936,0.01033 -0.03148,0.0043 -0.05885,0.0084 -0.08165,0.0124 l 0.602031,-0.192237 V 10.50626 Z" />
      <path
         id="text131926"
         style="font-weight:bold;font-size:1.05833px;line-height:1.25;font-family:'Fira Code';-inkscape-font-specification:'Fira Code Bold';font-variant-ligatures:none;letter-spacing:0.0396875px;writing-mode:tb-rl;fill:#000000;stroke-width:0.264583"
         inkscape:label="L"
         d="m 31.120053,13.20982 v 0.485758 l 0.14056,0.0186 V 13.3881 h 0.611333 v -0.178284 z" />
    </g>
  </g>
</svg>
