<?xml version="1.0" encoding="UTF-8" standalone="no"?>
<!-- Created with Inkscape (http://www.inkscape.org/) -->

<svg
   width="86.360001mm"
   height="35.560001mm"
   viewBox="0 0 172.72 71.120005"
   version="1.1"
   id="svg5"
   inkscape:version="1.1.2 (b8e25be833, 2022-02-05)"
   sodipodi:docname="back-2x.svg"
   xmlns:inkscape="http://www.inkscape.org/namespaces/inkscape"
   xmlns:sodipodi="http://sodipodi.sourceforge.net/DTD/sodipodi-0.dtd"
   xmlns="http://www.w3.org/2000/svg"
   xmlns:svg="http://www.w3.org/2000/svg">
  <sodipodi:namedview
     id="namedview7"
     pagecolor="#ffffff"
     bordercolor="#999999"
     borderopacity="1"
     inkscape:pageshadow="0"
     inkscape:pageopacity="0"
     inkscape:pagecheckerboard="false"
     inkscape:document-units="mm"
     showgrid="true"
     inkscape:snap-global="true"
     inkscape:zoom="3.6233469"
     inkscape:cx="169.45659"
     inkscape:cy="107.08332"
     inkscape:window-width="2558"
     inkscape:window-height="1253"
     inkscape:window-x="-8"
     inkscape:window-y="-8"
     inkscape:window-maximized="1"
     inkscape:current-layer="layer1"
     inkscape:snap-bbox="true"
     inkscape:bbox-nodes="true"
     inkscape:snap-grids="true"
     units="in">
    <inkscape:grid
       type="xygrid"
       id="grid848"
       units="mm"
       spacingx="0.254"
       spacingy="0.254"
       empspacing="10" />
  </sodipodi:namedview>
  <defs
     id="defs2">
    <clipPath
       clipPathUnits="userSpaceOnUse"
       id="clipPath871">
      <g
         inkscape:label="Clip"
         id="use873" />
    </clipPath>
    <style
       id="style2">.cls-1{fill:none;stroke:#e55625;stroke-miterlimit:10;stroke-width:0.92px;opacity:0.2;isolation:isolate;}.cls-2{fill:#8d7966;}.cls-3{fill:#e55625;}.cls-4{fill:#7f8c8d;}.cls-5{fill:#8f9090;}.cls-6{fill:#ecaa20;}.cls-7{fill:#077581;}.cls-8{fill:#00979d;}</style>
  </defs>
  <g
     inkscape:label="SILKSCREEN"
     inkscape:groupmode="layer"
     id="layer1"
     transform="translate(342.37628,64.091324)">
    <path
       id="path2521"
       style="fill:#000000;fill-opacity:1;stroke-width:0;stroke-miterlimit:4;stroke-dasharray:none"
       d="m 641.83594,42.761719 a 7.8420896,7.8420896 0 0 0 -7.84375,7.841797 7.8420896,7.8420896 0 0 0 7.84375,7.841796 7.8420896,7.8420896 0 0 0 7.84179,-7.841796 7.8420896,7.8420896 0 0 0 -7.84179,-7.841797 z m 0.28711,4.697265 a 3.1448283,3.1448283 0 0 1 3.14453,3.144532 3.1448283,3.1448283 0 0 1 -3.14453,3.144531 3.1448283,3.1448283 0 0 1 -3.14453,-3.144531 3.1448283,3.1448283 0 0 1 3.14453,-3.144532 z m -0.95117,12.341797 v 5.417969 h 2.79687 v -5.417969 z m -7.17969,4.640625 v 3.8125 l 9.65039,3.650391 -9.65039,3.650391 v 3.810546 l 15.68554,-5.93164 V 72.476562 71.332031 70.375 Z m 9.97461,14.136719 v 1.410156 h -9.97461 v 2.550781 l 10.93554,6.820313 h 2.33399 v -6.003906 h 2.41601 v -3.367188 h -2.41601 v -1.410156 z m -2.79492,4.777344 h 2.79492 v 1.74414 z m -1.68946,4.675781 a 5.7849317,5.7849317 0 0 0 -5.7832,5.785156 5.7849317,5.7849317 0 0 0 5.7832,5.783203 5.7849317,5.7849317 0 0 0 5.57227,-4.251953 l 4.62304,2.882813 v -4.876953 l -7.13476,-4.447266 -0.002,0.002 a 5.7849317,5.7849317 0 0 0 -3.0586,-0.876953 z m 0.32422,4.308594 a 1.4753517,1.4753517 0 0 1 1.47461,1.476562 1.4753517,1.4753517 0 0 1 -1.47461,1.47461 1.4753517,1.4753517 0 0 1 -1.47656,-1.47461 1.4753517,1.4753517 0 0 1 1.47656,-1.476562 z"
       transform="matrix(0.26458333,0,0,0.26458333,-342.37628,-64.091324)"
       inkscape:label="UL94" />
    <path
       id="path914"
       style="display:inline;fill:#000000;fill-opacity:1;fill-rule:nonzero;stroke:none;stroke-width:0.028761"
       d="m -174.6327,-32.6555 c 0,0.307951 0.34547,0.481126 0.62965,0.421058 0,0 1.7089,-0.371869 1.70595,-0.372207 0.16119,-0.03114 0.26674,-0.178677 0.26674,-0.340413 V -33.4193 l 1.54815,0.815367 v -1.090256 l -1.55629,-0.818468 v -0.200837 l 1.55629,-0.355534 v -2.337926 c 8e-4,-0.236989 -0.31226,-0.424286 -0.56218,-0.381124 -1.2277,0.217258 -3.58792,0.780472 -3.58792,0.780472 v 1.09956 l 2.85436,-0.612589 v 0.637403 l -2.85436,0.631201 z m 0.93788,-0.732007 v -0.961147 l 0.69479,-0.161677 v 0.961148 z"
       inkscape:label="RU" />
    <path
       id="path5162"
       style="display:inline;fill:#000000;fill-opacity:1;stroke-width:0;stroke-miterlimit:4;stroke-dasharray:none"
       d="m -174.63348,-27.930412 h 0.77272 0.36096 v -1.114294 a 1.0173654,1.114287 0 0 1 1.01737,-1.114294 1.0173654,1.114287 0 0 1 1.01736,1.114294 h -1.53031 v 1.114294 h 0.51295 1.22751 0.77271 v -1.114294 -0.500927 a 2.0755185,2.0755185 0 0 0 -2.07544,-2.075442 2.0755185,2.0755185 0 0 0 -2.07544,2.075442 v 0.500927 z"
       inkscape:label="D" />
    <path
       id="path4704-6"
       style="fill:#000000;stroke:#000000;stroke-width:0;stroke-linecap:butt;stroke-linejoin:miter;stroke-miterlimit:4;stroke-dasharray:none;stroke-opacity:1"
       d="m 649.67773,139.81641 -9.09961,6.67773 -8.60546,0.47266 v 3.50195 h 10.125 l 7.58007,-4.90625 z m -2.55273,9.0332 a 2.5531503,2.5531503 0 0 0 -2.55273,2.55273 2.5531503,2.5531503 0 0 0 2.55273,2.55469 2.5531503,2.5531503 0 0 0 2.55273,-2.55469 2.5531503,2.5531503 0 0 0 -2.55273,-2.55273 z m -15.15234,3.48828 v 3.50195 l 8.60546,0.47266 9.09961,6.67578 v -5.74414 l -7.58007,-4.90625 z"
       transform="matrix(0.26458333,0,0,0.26458333,-342.37628,-64.091324)"
       inkscape:label="ALBAPCB" />
    <path
       id="path18"
       style="display:inline;fill:#000000;stroke-width:0.517905"
       inkscape:label="GENUINO"
       d="m 250.9668,145.97461 v 19.00781 h 19.01172 v -19.00781 z m -9.69141,0.0352 v 2.77734 l 5.84961,1.64453 -5.84961,1.66406 v 2.76953 h 8.57422 v -1.71875 h -6.74805 l 6.74805,-1.81445 v -1.78125 l -6.74805,-1.82031 h 6.74805 v -1.7207 z m 17.31836,3.63867 h 3.75586 v 11.6582 h -3.75586 z m -17.31836,6.38672 v 7.28515 h 1.45117 v -2.7207 h 7.12305 V 158.75 h -7.12305 v -2.71484 z m 9.69141,11.25586 v 19.0039 h 19.01172 v -19.0039 z m 6.71679,2.70703 5.58399,5.58789 2.65625,2.65234 -2.65625,2.65625 -2.69141,2.6875 -2.65429,-2.6543 2.69335,-2.6875 -5.58398,-5.58203 z m -6.71679,18.59961 v 19.00781 h 19.01172 V 188.5977 Z m 9.5039,1.99414 c 0,0 4.50196,3.36072 4.50196,7.51172 0,4.14737 -4.50196,7.51367 -4.50196,7.51367 0,0 -4.49218,-3.3663 -4.49218,-7.51367 0,-4.15152 4.49218,-7.51172 4.49218,-7.51172 z m -0.0527,5.43554 c -1.11298,0.0283 -2.01563,0.94439 -2.01563,2.07618 0,1.1399 0.93107,2.07421 2.06836,2.07421 1.15495,0 2.07813,-0.93379 2.07813,-2.07421 0,-1.14975 -0.92318,-2.07618 -2.07813,-2.07618 -0.0178,0 -0.0351,-4.5e-4 -0.0527,0 z m -9.45117,13.88282 v 19.00781 h 19.01172 V 209.9102 Z m 7.63476,3.66992 h 3.75391 v 3.93945 h 3.95703 v 3.76367 h -3.95703 v 3.96094 h -3.75391 v -3.96094 h -3.96679 v -3.76367 h 3.96679 z"
       transform="matrix(0.26458333,0,0,0.26458333,-342.37628,-64.091324)" />
    <path
       id="path21916"
       style="font-size:1.81956px;line-height:1.25;font-family:'Cascadia Code';-inkscape-font-specification:'Cascadia Code, @wght=700';font-variation-settings:'wght' 700;fill:#000000;stroke-width:0.687961"
       d="m 257.20898,42.117188 c -0.33637,0.280667 -0.59706,0.692744 -0.77734,1.238281 -0.18444,0.54576 -0.27539,1.169014 -0.27539,1.875 0,1.567234 0.38124,2.782439 1.14648,3.638672 0.76124,0.856176 1.83634,1.28125 3.22657,1.28125 2.93272,0 4.40039,-1.699815 4.40039,-5.09961 0,-0.961338 -0.13781,-1.874871 -0.41016,-2.746093 l -1.46484,0.34375 c 0.24038,0.706042 0.35937,1.422446 0.35937,2.148437 0,2.178089 -0.98019,3.267578 -2.94336,3.267578 -0.89745,0 -1.58945,-0.257781 -2.07422,-0.773437 -0.4888,-0.52074 -0.73046,-1.211074 -0.73046,-2.072266 0,-0.405604 0.0592,-0.783439 0.18359,-1.128906 0.12019,-0.350362 0.29499,-0.637855 0.51953,-0.863282 z m 0,9.009765 c -0.33637,0.280668 -0.59706,0.694697 -0.77734,1.240235 -0.18444,0.54576 -0.27539,1.17292 -0.27539,1.878906 0,1.567238 0.38124,2.778532 1.14648,3.634765 0.76124,0.856177 1.83634,1.285157 3.22657,1.285157 2.93272,0 4.40039,-1.699815 4.40039,-5.09961 0,-0.961341 -0.13781,-1.88067 -0.41016,-2.751953 l -1.46484,0.347656 c 0.24038,0.706043 0.35937,1.42049 0.35937,2.146485 0,2.178089 -0.98019,3.265625 -2.94336,3.265625 -0.89745,0 -1.58945,-0.253853 -2.07422,-0.769531 -0.4888,-0.52074 -0.73046,-1.213027 -0.73046,-2.074219 0,-0.405604 0.0592,-0.779529 0.18359,-1.125 0.12019,-0.350438 0.29499,-0.639808 0.51953,-0.865235 z m 6.57227,11.695313 c -0.28006,0.0155 -0.51964,0.151554 -0.71875,0.40039 -0.21241,0.265512 -0.32031,0.588341 -0.32031,0.96875 0,0.380466 0.1079,0.70331 0.32031,0.96875 0.21241,0.265436 0.46896,0.394532 0.77344,0.394532 0.30047,0 0.55706,-0.129077 0.77344,-0.394532 0.2124,-0.265512 0.32031,-0.588337 0.32031,-0.96875 0,-0.380466 -0.10791,-0.703306 -0.32031,-0.96875 -0.21657,-0.265436 -0.47301,-0.40039 -0.77344,-0.40039 -0.0189,0 -0.0377,-10e-4 -0.0547,0 z m -3.31836,6.316406 c -2.87282,0.04165 -4.30664,1.395968 -4.30664,4.0625 0,2.708802 1.48253,4.064453 4.44727,4.064453 2.88464,0 4.32617,-1.355651 4.32617,-4.064453 0,-2.708859 -1.44153,-4.0625 -4.32617,-4.0625 -0.0461,0 -0.0949,-6.62e-4 -0.14063,0 z m -0.043,2.082031 c 0.0593,-0.0013 0.12237,0 0.1836,0 1.87502,0 2.81054,0.658613 2.81054,1.980469 0,1.321856 -0.93552,1.982422 -2.81054,1.982422 -1.95912,0 -2.9375,-0.660566 -2.9375,-1.982422 0,-1.280546 0.91528,-1.940455 2.7539,-1.980469 z m -4.14453,7.470703 v 1.908203 h 6.66992 v 0.277344 l -6.66992,1.878906 v 1.074219 0.541016 1.367187 h 8.5332 v -1.908203 h -6.66992 v -0.277344 l 6.66992,-1.878906 v -1.074219 -0.222656 -1.685547 z m 0,9.164063 v 2.388672 1.984375 2.371093 h 1.42578 v -2.371093 h 5.67774 v 2.371093 h 1.42968 v -2.371093 -1.984375 -2.388672 h -1.42968 v 2.388672 h -5.67774 v -2.388672 z m 0,8.804687 v 1.980469 h 5.79492 c 0.89345,0 1.33985,0.531157 1.33985,1.597655 0,0.55078 -0.11182,0.96033 -0.33594,1.2207 -0.22451,0.25531 -0.55917,0.38282 -1.00391,0.38282 h -5.79492 v 1.98047 h 5.79492 c 1.90708,0 2.85938,-1.18439 2.85938,-3.55274 0,-1.181694 -0.23825,-2.076644 -0.71485,-2.687499 -0.47678,-0.61587 -1.19099,-0.921875 -2.14453,-0.921875 z m 4.25,8.455074 c -2.83404,0.0514 -4.25,1.72223 -4.25,5.00977 v 0.72656 0.25977 1.72656 h 8.5332 v -1.87891 -0.10742 -0.72656 c 0,-3.33972 -1.38202,-5.00977 -4.14648,-5.00977 -0.0457,0 -0.0917,-8.1e-4 -0.13672,0 z m 0.13672,2.08008 c 0.85739,0 1.51024,0.24352 1.95898,0.73438 0.44474,0.48569 0.66797,1.21892 0.66797,2.19531 v 0.72656 h -5.49804 V 110.125 c 0,-0.97627 0.24161,-1.70951 0.72656,-2.19531 0.48476,-0.49087 1.199,-0.73438 2.14453,-0.73438 z m 4.14648,6.87305 -3.47851,1.98437 c -0.10507,-0.24321 -0.23418,-0.46277 -0.38672,-0.65625 -0.49678,-0.6259 -1.18859,-0.9375 -2.08203,-0.9375 -0.8253,0 -1.46141,0.31162 -1.91016,0.9375 -0.44874,0.62591 -0.67578,1.51162 -0.67578,2.65821 v 1.8125 0.2539 1.72852 h 8.5332 v -1.98242 h -3.12109 l -0.004,-1.8125 c 0,-0.0185 1.2e-4,-0.0363 0,-0.0547 l 3.125,-1.56641 z m -5.90429,2.5293 c 0.0241,-0.001 0.0494,0 0.0742,0 0.39265,0 0.70152,0.12749 0.92187,0.38281 0.21619,0.25557 0.32422,0.61378 0.32422,1.07422 v 1.8125 h -2.48828 v -1.8125 c 0,-0.46072 0.10803,-0.81892 0.32422,-1.07422 0.20267,-0.23935 0.48256,-0.36786 0.84375,-0.38281 z m 5.90429,6.38476 -8.5332,3.07813 v 2.43554 l 8.5332,3.07813 v -2.14063 l -1.61328,-0.52343 v -3.26368 l 1.61328,-0.52343 z m -3.08203,3.13672 v 2.31836 l -3.36523,-1.08984 v -0.13672 z"
       transform="matrix(0.26458333,0,0,0.26458333,-342.37628,-64.091324)"
       inkscape:label="WEBSITE" />
    <path
       id="text1693"
       style="font-style:normal;font-variant:normal;font-weight:normal;font-stretch:normal;font-size:10.7952px;line-height:1.25;font-family:'Cascadia Code';-inkscape-font-specification:'Cascadia Code, @wght=200';font-variant-ligatures:normal;font-variant-caps:normal;font-variant-numeric:normal;font-variant-east-asian:normal;font-variation-settings:'wght' 200;fill:#000000;stroke-width:0.347886"
       d="m -256.26417,-25.289573 h 23.61341 v -8.445218 h -23.61341 z m 1.8052,-1.708667 v -5.027504 h 0.18999 0.4637 l 2.69928,4.71577 h 0.031 v -4.71577 h 0.3974 v 5.027504 h -0.24309 -0.40633 l -2.69927,-4.71617 h -0.0353 v 4.71617 z m 4.84605,0 2.06303,-5.027504 h 0.56529 l 2.06304,5.027504 h -0.40206 l -0.56801,-1.405855 h -2.75123 l -0.568,1.405855 z m 1.09607,-1.71719 h 2.49922 l -1.22751,-3.037754 h -0.0442 z m 4.65996,1.71719 v -5.027504 h 0.18999 0.46409 l 2.69889,4.71577 h 0.031 v -4.71577 h 0.39741 v 5.027504 h -0.24271 -0.40672 l -2.69888,-4.71617 h -0.0353 v 4.71617 z m 4.9833,-2.478669 c 0,-1.746621 0.7359,-2.619801 2.20843,-2.619801 1.47253,0 2.20882,0.87318 2.20882,2.619801 0,1.699424 -0.73629,2.549235 -2.20882,2.549235 -1.47253,0 -2.20843,-0.849811 -2.20843,-2.549235 z m 0.40633,0 c 0,1.510594 0.60052,2.266212 1.8021,2.266212 1.20159,0 1.80249,-0.755618 1.80249,-2.266212 0,-1.534183 -0.6009,-2.301084 -1.80249,-2.301084 -1.20158,0 -1.8021,0.766901 -1.8021,2.301084 z"
       inkscape:label="NANO" />
    <path
       id="path124"
       style="fill:#000000;fill-opacity:1;stroke-width:0.956126"
       class="cls-8"
       d="m 412.53906,33.328125 a 6.8975475,6.8975475 0 0 0 -2.47265,0.558594 6.8975475,6.8975475 0 0 0 -2.20703,1.498047 7.170178,7.170178 0 0 0 -2.07227,5.072265 6.8975475,6.8975475 0 0 0 0.57227,2.72461 6.6794434,6.6794434 0 0 0 1.5,2.291015 7.3610196,7.3610196 0 0 0 2.20703,1.5 6.8975475,6.8975475 0 0 0 5.45312,0 7.3610196,7.3610196 0 0 0 2.20899,-1.5 7.170178,7.170178 0 0 0 1.52539,-2.291015 7.3610196,7.3610196 0 0 0 0.54687,-2.72461 7.4973347,7.4973347 0 0 0 -0.54687,-2.835937 7.5518604,7.5518604 0 0 0 -1.52539,-2.236328 6.8975475,6.8975475 0 0 0 -2.20899,-1.498047 6.8975475,6.8975475 0 0 0 -2.98047,-0.558594 z m 0.22656,1.568359 a 5.1527134,5.1527134 0 0 1 2.07227,0.433594 5.7797635,5.7797635 0 0 1 1.69141,1.146484 6.215972,6.215972 0 0 1 1.17187,1.798829 5.8615521,5.8615521 0 0 1 0.40821,2.18164 5.7524999,5.7524999 0 0 1 -0.40821,2.179688 5.8070264,5.8070264 0 0 1 -2.86328,2.945312 5.1254506,5.1254506 0 0 1 -4.14453,0 5.0163984,5.0163984 0 0 1 -1.68945,-1.199219 5.4526069,5.4526069 0 0 1 -1.14453,-1.746093 5.2890285,5.2890285 0 0 1 -0.4375,-2.179688 5.4526069,5.4526069 0 0 1 0.4375,-2.18164 5.6161848,5.6161848 0 0 1 1.14453,-1.798829 4.8800829,4.8800829 0 0 1 1.68945,-1.146484 5.1527134,5.1527134 0 0 1 2.07226,-0.433594 z m -0.11718,1.753907 a 3.2715642,3.2715642 0 0 0 -0.23633,0.01563 h -1.14453 -0.98242 v 7.035156 h 1.77148 v -2.291016 h 0.70898 l 1.25391,2.291016 h 1.99024 l -1.7168,-2.53711 a 2.3173579,2.3173579 0 0 0 0.92773,-0.84375 2.1810427,2.1810427 0 0 0 0.32618,-1.171874 2.4536731,2.4536731 0 0 0 -0.70899,-1.746094 3.2715642,3.2715642 0 0 0 -2.18945,-0.751953 z m -0.44532,1.636718 a 2.7263034,2.7263034 0 0 1 0.39844,0.01563 c 0.7361,0 1.11914,0.35349 1.11914,1.007813 0,0.654315 -0.40858,0.900391 -1.19922,0.900391 h -0.51953 v -1.908204 a 2.7263034,2.7263034 0 0 1 0.20117,-0.01563 z m -66.56835,4.048829 c -12.78339,0 -23.16797,10.021042 -23.16797,22.335937 0,12.314895 10.38438,22.34375 23.1582,22.34375 a 26.303013,26.303013 0 0 0 3.56641,-0.248047 c 9.88633,-1.415066 16.5795,-8.568276 20.29882,-14.046875 3.71936,5.478599 10.36428,12.62225 20.2793,14.046875 a 26.551607,26.551607 0 0 0 3.57617,0.248047 c 12.76426,0 23.15625,-10.019293 23.15625,-22.34375 0,-12.314895 -10.39219,-22.335937 -23.16601,-22.335937 a 25.040927,25.040927 0 0 0 -3.56641,0.248046 c -9.91502,1.415067 -16.55994,8.606111 -20.2793,14.027344 -3.71932,-5.469037 -10.41249,-12.612277 -20.29882,-14.027344 a 24.859263,24.859263 0 0 0 -3.55664,-0.248046 z m 0.0469,7.90625 a 17.544903,17.544903 0 0 1 2.43945,0.183593 c 9.3509,1.329014 15.07664,10.517205 17.01758,14.246094 -1.91225,3.700207 -7.64756,12.917279 -17.01758,14.255859 h -0.0488 a 17.554464,17.554464 0 0 1 -2.44727,0.171875 c -8.40435,0 -15.24023,-6.47277 -15.24023,-14.427734 0,-7.954964 6.83515,-14.429687 15.29687,-14.429687 z m 47.70117,0 c 8.40435,0 15.24219,6.484285 15.24219,14.429687 0,7.945406 -6.82808,14.427734 -15.23242,14.427734 a 17.659638,17.659638 0 0 1 -2.44727,-0.171875 c -9.35089,-1.33858 -15.07839,-10.565215 -17.00976,-14.255859 1.91225,-3.690644 7.64931,-12.91708 17.00976,-14.246094 a 17.544903,17.544903 0 0 1 2.4375,-0.183593 z m -3.00195,7.535156 v 4.71289 h -4.70313 v 4.484375 h 4.70313 v 4.714844 h 4.50391 v -4.714844 h 4.69531 v -4.484375 h -4.69531 v -4.71289 z m -51.13281,4.71289 v 4.484375 h 13.91211 v -4.484375 z m 69.08984,30.875 c -4.00615,0 -5.52734,2.954164 -5.52734,6.931646 0,4.39818 1.72041,6.6914 5.54492,6.6914 4.2452,0 5.65234,-2.98214 5.65234,-6.80664 0,-5.038786 -1.91235,-6.787681 -5.66992,-6.816406 z m -79.34961,0.208985 -4.15039,13.214841 h 3.32813 l 0.66992,-2.69726 h 3.82422 l 0.73632,2.69726 h 3.47071 l -4.20703,-13.214841 z m 9.69531,0 V 106.75 h 3.26953 v -4.1875 h 1.64454 l 2.02734,4.22656 h 3.82422 l -2.58203,-4.83789 a 4.1687074,4.1687074 0 0 0 2.17187,-3.958982 c 0,-2.505049 -1.37708,-4.417969 -5.03906,-4.417969 z m 12.74414,0 v 13.185551 h 4.35157 c 5.60292,0 6.55859,-3.56684 6.55859,-6.69336 0,-4.149589 -1.64452,-6.492191 -6.57812,-6.492191 z m 12.95704,0 v 8.634761 c 0,4.03485 2.79033,4.7793 5.13281,4.7793 2.34251,0 5.32617,-0.83143 5.32617,-4.73242 v -8.681641 h -3.14453 l 0.0273,8.050781 c 0,2.01742 -0.5436,2.6875 -2.03515,2.6875 -1.23341,0 -2.00782,-0.50794 -2.00782,-2.70703 v -8.031251 z m 13.10742,0 v 2.707031 h 3.41406 v 7.81055 h -3.41406 v 2.69726 h 10.11719 v -2.69726 h -3.4336 v -7.81055 h 3.4336 v -2.707031 z m 12.53515,0 v 13.214841 h 3.08789 l -0.0195,-8.453122 4.51368,8.453122 h 3.30859 V 93.574219 h -3.05078 v 7.935551 l -4.28321,-7.935551 z m 18.31055,2.486328 c 1.93141,0 2.18945,0.889386 2.18945,4.121093 0,3.05004 -0.27874,4.15039 -2.17187,4.15039 -1.89298,0 -2.07422,-1.34022 -2.07422,-4.00781 0,-3.231701 0.30695,-4.263673 2.05664,-4.263673 z m -66.3457,0.181641 h 1.66406 c 1.48199,0 1.91211,0.593497 1.91211,1.769531 0,1.462873 -0.75593,1.96875 -1.85547,1.96875 h -1.7207 z m 12.70703,0 h 0.91797 c 2.92584,-10e-7 3.19336,1.377446 3.19336,3.958982 0,2.23734 -0.1633,3.89063 -2.86914,3.89063 h -1.24219 z m -24.00977,0.46875 1.30078,4.837892 h -2.49414 z"
       transform="matrix(0.26458333,0,0,0.26458333,-342.37628,-64.091324)"
       inkscape:label="ARDUINO" />
    <path
       id="path21835"
       style="font-size:198.431px;line-height:1.25;font-family:'Cascadia Code';-inkscape-font-specification:'Cascadia Code, @wght=700';font-variation-settings:'wght' 700;fill:#000000;stroke-width:0.418715"
       d="m 339.73047,222.7207 c -0.78913,0 -1.39673,0.14659 -1.82813,0.43946 -0.43139,0.29286 -0.64843,0.70815 -0.64843,1.24218 0,0.379 0.14647,0.7222 0.4375,1.03516 0.29102,0.31296 0.70088,0.5766 1.23047,0.78906 l 1.07421,0.42578 c 0.41035,0.15792 0.61329,0.36971 0.61329,0.63672 0,0.20386 -0.10085,0.36356 -0.30079,0.47266 -0.19993,0.1091 -0.4841,0.16016 -0.85937,0.16016 -0.32277,0 -0.67633,-0.0337 -1.0586,-0.10547 -0.37878,-0.0718 -0.76266,-0.17262 -1.14843,-0.30469 l -0.1875,1.16211 c 0.31559,0.10624 0.67442,0.1897 1.07422,0.25 0.39983,0.0574 0.81001,0.0859 1.23437,0.0859 0.88029,0 1.56013,-0.14464 2.03711,-0.4375 0.47698,-0.29573 0.71484,-0.71712 0.71484,-1.25977 0,-0.34167 -0.14195,-0.66234 -0.42968,-0.96094 -0.28422,-0.2986 -0.69073,-0.5573 -1.2168,-0.78125 l -1.01172,-0.42969 c -0.2245,-0.0976 -0.39677,-0.20363 -0.51953,-0.32421 -0.11943,-0.12059 -0.17969,-0.24787 -0.17969,-0.38282 0,-0.20385 0.0862,-0.35861 0.25781,-0.46484 0.17197,-0.1091 0.41403,-0.16406 0.72266,-0.16406 0.22791,0 0.46155,0.049 0.70703,0.15234 0.24567,0.1005 0.49237,0.248 0.73438,0.4375 l 0.95898,-0.90234 c -0.31937,-0.2498 -0.68966,-0.43824 -1.10351,-0.57031 -0.41031,-0.13207 -0.84525,-0.19922 -1.30469,-0.19922 z m 13.01367,0 c -1.07671,0 -1.91315,0.27778 -2.50586,0.82618 -0.59274,0.54552 -0.89062,1.31229 -0.89062,2.30859 0,1.05084 0.28768,1.83981 0.85937,2.36523 0.57521,0.52543 1.43283,0.78907 2.57617,0.78907 0.49452,0 0.93454,-0.0316 1.32032,-0.0977 0.38577,-0.0689 0.65818,-0.12282 0.8125,-0.16016 v -2.99414 h -0.0293 -1.34961 -1.23438 v 1.04688 h 1.23438 v 1.0625 c -0.19616,0.0262 -0.38802,0.0547 -0.625,0.0547 -0.69793,0 -1.22348,-0.17316 -1.57422,-0.52344 -0.35074,-0.35316 -0.52344,-0.8825 -0.52344,-1.58594 0,-0.64027 0.17216,-1.13409 0.51953,-1.48438 0.35074,-0.35028 0.84137,-0.52343 1.47266,-0.52343 0.28044,0 0.53925,0.0469 0.78125,0.14453 0.24567,0.0948 0.45193,0.22904 0.61328,0.39844 l 0.87305,-0.82422 c -0.2211,-0.25554 -0.53141,-0.45203 -0.92774,-0.58985 -0.3928,-0.14069 -0.85873,-0.21289 -1.40234,-0.21289 z m 62.74414,0 c -0.78913,0 -1.40063,0.14659 -1.83203,0.43946 -0.4314,0.29286 -0.64844,0.70815 -0.64844,1.24218 0,0.379 0.14648,0.7222 0.4375,1.03516 0.29103,0.31296 0.70088,0.5766 1.23047,0.78906 l 1.07422,0.42578 c 0.41034,0.15792 0.61523,0.36971 0.61523,0.63672 0,0.20386 -0.0989,0.36356 -0.29882,0.47266 -0.19994,0.1091 -0.48802,0.16016 -0.86329,0.16016 -0.32277,0 -0.67633,-0.0337 -1.05859,-0.10547 -0.37878,-0.0718 -0.75872,-0.17262 -1.14453,-0.30469 l -0.19141,1.16211 c 0.31559,0.10624 0.67439,0.1897 1.07422,0.25 0.3998,0.0574 0.81001,0.0859 1.23438,0.0859 0.88033,0 1.56013,-0.14464 2.03711,-0.4375 0.47697,-0.29573 0.71484,-0.71712 0.71484,-1.25977 0,-0.34167 -0.14195,-0.66234 -0.42969,-0.96094 -0.28422,-0.2986 -0.69072,-0.5573 -1.21679,-0.78125 l -1.00782,-0.42969 c -0.2245,-0.0976 -0.40071,-0.20363 -0.52343,-0.32421 -0.11944,-0.12059 -0.17969,-0.24787 -0.17969,-0.38282 0,-0.20385 0.0862,-0.35861 0.25781,-0.46484 0.17197,-0.1091 0.41402,-0.16406 0.72266,-0.16406 0.2279,0 0.46542,0.049 0.71093,0.15234 0.24567,0.1005 0.48847,0.248 0.73047,0.4375 l 0.95899,-0.90234 c -0.31899,-0.2498 -0.6897,-0.43824 -1.10352,-0.57031 -0.41034,-0.13207 -0.84134,-0.19922 -1.30078,-0.19922 z m 6.3125,0 c -0.78913,0 -1.39868,0.14659 -1.83008,0.43946 -0.43135,0.29286 -0.64843,0.70815 -0.64843,1.24218 0,0.379 0.14651,0.7222 0.4375,1.03516 0.29102,0.31296 0.70088,0.5766 1.23046,0.78906 l 1.07227,0.42578 c 0.41034,0.15792 0.61719,0.36971 0.61719,0.63672 0,0.20386 -0.10085,0.36356 -0.30078,0.47266 -0.19994,0.1091 -0.48802,0.16016 -0.86329,0.16016 -0.32277,0 -0.67434,-0.0337 -1.05664,-0.10547 -0.37878,-0.0718 -0.76262,-0.17262 -1.14843,-0.30469 l -0.1875,1.16211 c 0.31559,0.10624 0.67047,0.1897 1.07031,0.25 0.3998,0.0574 0.81583,0.0859 1.24023,0.0859 0.88029,0 1.55818,-0.14464 2.03516,-0.4375 0.47698,-0.29573 0.71484,-0.71712 0.71484,-1.25977 0,-0.34167 -0.14195,-0.66234 -0.42968,-0.96094 -0.28422,-0.2986 -0.68878,-0.5573 -1.21485,-0.78125 l -1.01172,-0.42969 c -0.2245,-0.0976 -0.39677,-0.20363 -0.51953,-0.32421 -0.11905,-0.12059 -0.18164,-0.24787 -0.18164,-0.38282 0,-0.20385 0.0862,-0.35861 0.25781,-0.46484 0.17197,-0.1091 0.41207,-0.16406 0.72071,-0.16406 0.2279,0 0.46542,0.049 0.71093,0.15234 0.24567,0.1005 0.48847,0.248 0.73047,0.4375 l 0.95703,-0.90234 c -0.31899,-0.2498 -0.68379,-0.43824 -1.09765,-0.57031 -0.41034,-0.13207 -0.84521,-0.19922 -1.30469,-0.19922 z m -97.31445,0.0879 v 6.11524 h 1.31445 0.0742 0.51172 c 2.3393,0 3.50781,-0.9896 3.50781,-2.97071 0,-2.09594 -1.16851,-3.14453 -3.50781,-3.14453 h -0.51172 -0.18164 z m 6.41797,0 v 1.04688 1.48047 1.05078 1.48828 1.04883 h 1.39062 3.73633 V 227.875 h -3.73633 v -1.48828 h 2.78516 v -1.05078 h -2.78516 v -1.48047 h 3.73633 v -1.04688 h -3.73633 z m 12.66797,0 v 1.01953 h 1.66015 v 4.07032 h -1.66015 v 1.02539 h 1.66015 1.39063 1.67383 v -1.02539 h -1.67383 v -4.07032 h 1.67383 v -1.01953 h -1.67383 -1.39063 z m 12.51953,0 v 6.11524 h 1.33789 v -4.7793 h 0.19531 l 1.31641,4.7793 h 0.75 0.15625 1.17968 v -6.11524 h -1.33593 v 4.77735 h -0.19532 l -1.3125,-4.77735 h -0.7539 -0.37891 z m 6.37695,0 v 1.04688 1.48047 1.05078 1.48828 1.04883 h 1.38867 3.73438 V 227.875 h -3.73438 v -1.48828 h 2.78906 v -1.05078 h -2.78906 v -1.48047 h 3.73438 v -1.04688 h -3.73438 z m 6.20703,0 v 6.11524 h 1.31641 0.0742 0.50781 c 2.3393,0 3.50976,-0.9896 3.50976,-2.97071 0,-2.09594 -1.17046,-3.14453 -3.50976,-3.14453 h -0.50781 -0.17969 z m 14.28516,0 -2.15625,6.11524 h 1.49609 l 0.36719,-1.15821 h 2.28711 l 0.36719,1.15821 h 1.5 l -2.15625,-6.11524 z m 4.69726,0 v 6.11524 h 1.33594 v -4.7793 h 0.19531 l 1.31446,4.7793 h 0.7539 0.15625 1.17969 v -6.11524 h -1.33594 v 4.77735 h -0.19531 l -1.31641,-4.77735 h -0.75 -0.38086 z m 6.27149,0 v 6.11524 h 1.31445 0.0742 0.51172 c 2.3393,0 3.5039,-0.9896 3.5039,-2.97071 0,-2.09594 -1.1646,-3.14453 -3.5039,-3.14453 h -0.51172 -0.18164 z m 14.2832,0 -2.15625,6.11524 h 1.49609 l 0.36719,-1.15821 h 2.28516 l 0.36914,1.15821 h 1.5 l -2.1582,-6.11524 z m 17.38477,0 v 1.04688 1.48047 1.05078 1.48828 1.04883 h 1.38867 3.73437 V 227.875 h -3.73437 v -1.48828 h 2.78906 v -1.05078 h -2.78906 v -1.48047 h 3.73437 v -1.04688 h -3.73437 z m 6.14648,0 v 6.11524 h 1.29492 v -5.0293 h 0.16016 l 0.63281,2.88672 h 0.30469 0.32812 0.33594 l 0.62891,-2.88672 h 0.16406 v 5.0293 h 1.29297 v -6.11524 h -1.20703 -0.0859 -0.6875 l -0.54687,2.73438 h -0.043 -0.0234 -0.0195 l -0.54688,-2.73438 h -0.6875 -0.0859 z m 6.48047,0 v 6.11524 h 1.31641 0.0742 1.5586 c 0.75054,0 1.33141,-0.14463 1.73828,-0.4375 0.41034,-0.29286 0.61523,-0.71011 0.61523,-1.24414 0,-0.47087 -0.17902,-0.83535 -0.5332,-1.09375 -0.35074,-0.25841 -0.85117,-0.38672 -1.5,-0.38672 h -0.23828 v -0.15625 c 0.51942,-0.0212 0.94819,-0.11617 1.24609,-0.31641 0.33336,-0.22682 0.5,-0.54852 0.5,-0.96484 0,-0.48523 -0.21708,-0.85982 -0.64843,-1.1211 -0.42788,-0.26414 -1.03474,-0.39453 -1.82032,-0.39453 h -0.91797 -0.17968 z m 6.31445,0 v 5.06641 1.04883 h 1.38672 3.73633 V 227.875 h -3.73633 v -5.06641 z m 6.31055,0 v 1.04688 1.48047 1.05078 1.48828 1.04883 h 1.39062 3.73243 V 227.875 h -3.73243 v -1.48828 h 2.78711 v -1.05078 h -2.78711 v -1.48047 h 3.73243 v -1.04688 h -3.73243 z m 6.20898,0 v 6.11524 h 1.3125 0.0742 0.51367 c 2.33931,0 3.50782,-0.9896 3.50782,-2.97071 0,-2.09594 -1.16851,-3.14453 -3.50782,-3.14453 h -0.51367 -0.17969 z m 12.77149,0 v 1.01953 h 1.66406 v 4.07032 h -1.66406 v 1.02539 h 1.66406 1.38672 1.67383 v -1.02539 h -1.67383 v -4.07032 h 1.67383 v -1.01953 h -1.67383 -1.38672 z m 6.20898,0 v 6.11524 h 1.33594 v -4.7793 h 0.19531 l 1.3125,4.7793 h 0.75391 0.15625 1.18164 v -6.11524 h -1.33789 v 4.77735 h -0.19531 l -1.3125,-4.77735 h -0.75391 -0.37891 z m 12.73047,0 v 1.01953 h 1.66211 v 4.07032 h -1.66211 v 1.02539 h 1.66211 1.39063 1.67187 v -1.02539 h -1.67187 v -4.07032 h 1.67187 v -1.01953 h -1.67187 -1.39063 z m 5.84961,0 v 1.04688 H 496.75 v 5.06836 h 1.39062 v -5.06836 h 2.12891 V 222.8086 H 498.14062 496.75 Z m 8.28516,0 -2.15821,6.11524 h 1.50196 l 0.36718,-1.15821 h 2.28516 l 0.36719,1.15821 h 1.50195 l -2.1582,-6.11524 z m 4.76367,0 v 5.06641 1.04883 h 1.38672 3.73633 V 227.875 h -3.73633 v -5.06641 z m 5.60351,0 2.41797,4.15625 v 1.95899 h 1.38867 v -1.95899 L 519.5,222.80859 h -1.55469 l -1.51367,2.83985 h -0.0977 l -1.51171,-2.83985 z m -73.65625,1.04688 h 0.86719 c 0.35414,0 0.6176,0.0539 0.79297,0.16015 0.17877,0.10336 0.26953,0.25812 0.26953,0.46485 0,0.22682 -0.0857,0.39791 -0.2539,0.51562 -0.16479,0.11484 -0.40821,0.17188 -0.73438,0.17188 h -0.94141 z m -113.74023,0.0391 h 0.51172 c 0.6839,0 1.19496,0.17211 1.53516,0.51953 0.34355,0.34741 0.51562,0.86147 0.51562,1.53906 0,0.61443 -0.1718,1.08078 -0.51562,1.40235 -0.34016,0.3187 -0.85126,0.47656 -1.53516,0.47656 H 325.875 Z m 44.19141,0 h 0.50781 c 0.6839,0 1.19887,0.17211 1.53906,0.51953 0.34356,0.34741 0.51172,0.86147 0.51172,1.53906 0,0.61443 -0.16801,1.08078 -0.51172,1.40235 -0.34016,0.3187 -0.85516,0.47656 -1.53906,0.47656 h -0.50781 z m 25.25195,0 h 0.51172 c 0.6839,0 1.19496,0.17211 1.53515,0.51953 0.34356,0.34741 0.51563,0.86147 0.51563,1.53906 0,0.61443 -0.1718,1.08078 -0.51563,1.40235 -0.34015,0.3187 -0.85125,0.47656 -1.53515,0.47656 h -0.51172 z m 63.12695,0 h 0.51367 c 0.68387,0 1.19497,0.17211 1.53516,0.51953 0.34356,0.34741 0.51563,0.86147 0.51563,1.53906 0,0.61443 -0.17177,1.08078 -0.51563,1.40235 -0.34016,0.3187 -0.85129,0.47656 -1.53516,0.47656 h -0.51367 z m -74.67969,0.41016 h 0.0938 l 0.76367,2.41015 H 383 Z m 25.25196,0 h 0.0937 l 0.76172,2.41015 h -1.6211 z m 94.6914,0 h 0.0977 l 0.76172,2.41015 h -1.62109 z m -64.09375,1.91406 h 1.17969 c 0.40683,0 0.72046,0.0713 0.94141,0.21484 0.2211,0.14356 0.33203,0.3442 0.33203,0.60547 0,0.26415 -0.10627,0.47076 -0.31641,0.61719 -0.21052,0.14643 -0.50403,0.21875 -0.88281,0.21875 h -1.25391 z"
       transform="matrix(0.26458333,0,0,0.26458333,-342.37628,-64.091324)"
       inkscape:label="ITALY" />
    <path
       id="path17428"
       style="font-size:198.431px;line-height:1.25;font-family:'Cascadia Code';-inkscape-font-specification:'Cascadia Code, @wght=700';font-variation-settings:'wght' 700;fill:#000000;stroke-width:0.418715"
       d="m 333.21875,213.28906 c -1.83853,0.0327 -2.75781,1.09604 -2.75781,3.1875 0,2.06724 0.9483,3.09961 2.8457,3.09961 1.8974,0 2.84961,-1.03237 2.84961,-3.09961 0,-2.12466 -0.95221,-3.1875 -2.84961,-3.1875 -0.0297,0 -0.0587,-5.2e-4 -0.0879,0 z m 12.82617,0 c -0.78913,0 -1.40063,0.14855 -1.83203,0.44141 -0.43139,0.29286 -0.64453,0.70424 -0.64453,1.23828 0,0.379 0.14268,0.72611 0.43359,1.03906 0.29103,0.31296 0.70088,0.57269 1.23047,0.78516 l 1.07422,0.42578 c 0.41034,0.15792 0.61914,0.37556 0.61914,0.64258 0,0.20385 -0.10084,0.35964 -0.30078,0.46875 -0.19994,0.1091 -0.48997,0.16406 -0.86523,0.16406 -0.32278,0 -0.67239,-0.0376 -1.05469,-0.10937 -0.37879,-0.0718 -0.76263,-0.17262 -1.14844,-0.30469 l -0.1875,1.16015 c 0.31559,0.10624 0.67048,0.1897 1.07031,0.25 0.3998,0.0574 0.81388,0.0859 1.23828,0.0859 0.88029,0 1.56014,-0.14463 2.03711,-0.4375 0.47698,-0.29573 0.71485,-0.71516 0.71485,-1.25781 0,-0.34167 -0.14609,-0.66429 -0.4336,-0.96289 -0.28422,-0.2986 -0.68877,-0.5573 -1.21484,-0.78125 l -1.00977,-0.42578 c -0.2245,-0.0976 -0.39677,-0.20754 -0.51953,-0.32813 -0.11905,-0.12058 -0.17968,-0.24787 -0.17968,-0.38281 0,-0.20385 0.0862,-0.35861 0.25781,-0.46484 0.17197,-0.1091 0.41011,-0.16407 0.71875,-0.16407 0.2279,0 0.46542,0.049 0.71094,0.15235 0.24566,0.1005 0.49041,0.248 0.73242,0.4375 l 0.95703,-0.90235 c -0.31899,-0.24979 -0.6838,-0.43823 -1.09766,-0.57031 -0.41034,-0.13207 -0.84716,-0.19922 -1.30664,-0.19922 z m 13.06836,0 c -1.04844,0.0167 -1.86627,0.29297 -2.44726,0.82422 -0.5997,0.54552 -0.89844,1.31621 -0.89844,2.3125 0,2.10169 1.19086,3.15039 3.57226,3.15039 0.67336,0 1.31554,-0.0977 1.92578,-0.29297 l -0.24218,-1.05078 c -0.49452,0.17227 -0.99537,0.26172 -1.50391,0.26172 -1.52564,0 -2.29101,-0.70837 -2.29101,-2.11523 0,-0.64315 0.18356,-1.13697 0.54492,-1.48438 0.36472,-0.35028 0.84597,-0.52344 1.44922,-0.52344 0.28422,0 0.54706,0.0438 0.78906,0.13282 0.24567,0.0861 0.44763,0.21031 0.60547,0.37109 l 0.77734,-0.83203 c -0.19653,-0.24118 -0.48492,-0.42549 -0.86719,-0.55469 -0.3823,-0.13207 -0.81798,-0.19922 -1.3125,-0.19922 -0.0343,0 -0.0677,-5.4e-4 -0.10156,0 z m 5.67188,0 c -1.83853,0.0327 -2.75782,1.09604 -2.75782,3.1875 0,2.06724 0.94831,3.09961 2.84571,3.09961 1.8974,0 2.84375,-1.03237 2.84375,-3.09961 0,-2.12466 -0.94635,-3.1875 -2.84375,-3.1875 -0.0297,0 -0.0587,-5.2e-4 -0.0879,0 z m -40.29883,0.0859 v 6.11523 H 325.875 V 217.25 h 1.26953 c 0.0113,0 0.0219,-0.004 0.0332,-0.004 l 1.09766,2.24414 h 1.66211 l -1.41211,-2.52929 c 0.16479,-0.0743 0.34684,-0.13206 0.47852,-0.23828 0.43838,-0.35603 0.66015,-0.85583 0.66015,-1.4961 0,-0.59146 -0.22162,-1.04561 -0.66015,-1.36718 -0.43839,-0.32157 -1.05818,-0.48438 -1.86133,-0.48438 h -1.26953 -0.17969 z m 12.62695,0 v 6.11523 H 338.5 v -2.52148 h 2.24219 v 2.52148 h 1.38867 V 213.375 h -1.38867 v 2.54688 H 338.5 V 213.375 Z m 31.5,0 v 6.11523 h 1.29297 v -5.02929 h 0.16406 l 0.63281,2.88672 h 0.30469 0.32422 0.33594 l 0.63281,-2.88672 h 0.16406 v 5.02929 h 1.29297 V 213.375 h -1.21093 -0.082 -0.6914 l -0.54688,2.73438 h -0.0391 -0.0234 -0.0176 l -0.54687,-2.73438 h -0.69336 -0.082 z m 6.48242,0 v 6.11523 h 1.38672 v -1.75 h 0.90235 c 0.93645,0 1.66177,-0.20442 2.17382,-0.60351 0.51205,-0.40196 0.76563,-0.96604 0.76563,-1.69531 0,-0.6575 -0.25373,-1.16455 -0.76563,-1.52344 -0.51205,-0.36177 -1.23737,-0.54297 -2.17382,-0.54297 h -0.90235 -0.10547 z m 6.31055,0 v 5.06836 1.04687 h 1.39063 3.73632 v -1.04687 h -3.73632 V 213.375 Z m 6.35742,0 v 1.01953 h 1.66211 v 4.07227 h -1.66211 v 1.02343 h 1.66211 1.39063 1.67187 v -1.02343 h -1.67187 v -4.07227 h 1.67187 V 213.375 h -1.67187 -1.39063 z m 7.82422,0 -2.1582,6.11523 h 1.49804 l 0.36719,-1.15625 h 2.28516 l 0.36719,1.15625 h 1.5 l -2.15625,-6.11523 z m 4.69727,0 v 6.11523 h 1.33593 v -4.77929 h 0.19532 l 1.3125,4.77929 h 0.7539 0.15625 1.18164 V 213.375 h -1.33789 v 4.7832 h -0.19531 l -1.31641,-4.7832 h -0.75 -0.3789 z m 5.95507,0 v 1.04688 h 2.12891 v 5.06835 h 1.38672 v -5.06835 h 2.13476 V 213.375 h -2.13476 -1.38672 z m -72.93359,0.99609 c 0.92591,0 1.39063,0.70147 1.39063,2.10547 0,1.34371 -0.46472,2.01758 -1.39063,2.01758 -0.92587,0 -1.38672,-0.67387 -1.38672,-2.01758 0,-1.404 0.46085,-2.10547 1.38672,-2.10547 z m 31.56641,0 c 0.92591,0 1.39062,0.70147 1.39062,2.10547 0,1.34371 -0.46471,2.01758 -1.39062,2.01758 -0.92591,0 -1.38672,-0.67387 -1.38672,-2.01758 0,-1.404 0.46081,-2.10547 1.38672,-2.10547 z m -38.99805,0.0508 h 1.26953 c 0.32277,0 0.57112,0.0793 0.75,0.23437 0.17877,0.15504 0.26953,0.372 0.26953,0.65625 0,0.28137 -0.0908,0.50224 -0.26953,0.66016 -0.17877,0.15503 -0.42734,0.23046 -0.75,0.23046 H 325.875 Z m 50.60742,0 h 0.90235 c 0.45947,0 0.80959,0.0957 1.05859,0.28515 0.25247,0.18949 0.38086,0.45831 0.38086,0.80859 0,0.37038 -0.12843,0.65656 -0.38086,0.86329 -0.24907,0.20672 -0.59912,0.3125 -1.05859,0.3125 h -0.90235 z m 19.91016,0.44921 h 0.0937 l 0.76172,2.41016 h -1.6211 z"
       transform="matrix(0.26458333,0,0,0.26458333,-342.37628,-64.091324)"
       inkscape:label="ROHS" />
    <path
       id="path3457"
       style="fill:#000000;stroke-width:0.0129982"
       inkscape:label="FCC"
       d="m -255.85495,-13.581747 c -0.416,0 -0.75344,0.337436 -0.75344,0.753443 v 3.4276984 c 0,0.09048 0.0734,0.1638141 0.16381,0.1638141 h 0.56586 v -1.8076415 h 1.37821 c 0.1503,1.030796 1.03802,1.8226275 2.11047,1.8226275 0.84227,0 1.57052,-0.4884102 1.91719,-1.1973425 h -0.68626 c -0.28244,0.37098 -0.72875,0.6108142 -1.23093,0.6108142 -0.85383,0 -1.54616,-0.6923062 -1.54616,-1.5461592 0,-0.853889 0.69229,-1.546158 1.54616,-1.546158 0.50222,0 0.94853,0.239305 1.23093,0.610298 h 0.68626 c -0.34669,-0.708932 -1.07492,-1.197343 -1.91719,-1.197343 -1.08956,0 -1.98801,0.817372 -2.11667,1.872237 h -1.38803 v -1.088305 c 0.0231,-0.07672 0.0941,-0.132808 0.17828,-0.132808 h 1.34411 v -0.745175 z m 3.46491,0.934828 c -0.71375,0 -1.29243,0.57867 -1.29243,1.292426 0,0.713772 0.57868,1.292429 1.29243,1.292429 0.56068,0 1.03754,-0.35764 1.21646,-0.856795 h -0.59118 c -0.13531,0.200912 -0.36487,0.333312 -0.62528,0.333312 -0.41599,0 -0.75345,-0.337434 -0.75345,-0.753441 0,-0.415994 0.33746,-0.752927 0.75345,-0.752927 0.24641,0 0.46512,0.118337 0.60254,0.301275 h 0.61392 c -0.17893,-0.499144 -0.65579,-0.856279 -1.21646,-0.856279 z" />
    <path
       id="path933"
       style="clip-rule:evenodd;fill:#000000;fill-rule:evenodd;stroke-width:0.021924"
       inkscape:label="CE"
       d="m -246.49583,-13.592598 a 2.1923992,2.1923992 0 0 0 0,4.384744 2.192399,2.192399 0 0 0 0.21911,-0.010848 v -0.6578415 a 1.5346793,1.5346793 0 0 1 -0.21911,0.010848 1.534791,1.534791 0 0 1 0,-3.0695815 1.5346793,1.5346793 0 0 1 0.21911,0.01138 v -0.657842 a 2.192399,2.192399 0 0 0 -0.21911,-0.01085 z m 3.72691,0 a 2.1923992,2.1923992 0 0 0 0,4.384744 2.192399,2.192399 0 0 0 0.21962,-0.010848 v -0.6578415 a 1.5346793,1.5346793 0 0 1 -0.21962,0.010848 1.5346793,1.5346793 0 0 1 -1.49914,-1.2056135 h 1.28003 v -0.657839 h -1.28003 a 1.5346793,1.5346793 0 0 1 1.49914,-1.206129 1.5346793,1.5346793 0 0 1 0.21962,0.01138 v -0.657842 a 2.192399,2.192399 0 0 0 -0.21962,-0.01085 z" />
  </g>
</svg>
